<svg width="475" height="475" viewBox="0 0 475 475" fill="none" xmlns="http://www.w3.org/2000/svg">
<path d="M415.625 29.6875H341.406V59.375H415.625V415.625H341.406V445.312H415.625C423.491 445.289 431.029 442.154 436.591 436.591C442.154 431.029 445.289 423.491 445.312 415.625V59.375C445.289 51.5086 442.154 43.9711 436.591 38.4087C431.029 32.8463 423.491 29.711 415.625 29.6875ZM207.812 252.344H118.75C116.77 252.225 114.787 252.527 112.932 253.231C111.077 253.935 109.392 255.024 107.989 256.427C106.587 257.83 105.497 259.514 104.793 261.369C104.09 263.224 103.787 265.207 103.906 267.188V356.25C103.787 358.23 104.09 360.213 104.793 362.068C105.497 363.923 106.587 365.608 107.989 367.01C109.392 368.413 111.077 369.503 112.932 370.207C114.787 370.91 116.77 371.213 118.75 371.094H207.812C209.793 371.213 211.776 370.91 213.631 370.207C215.486 369.503 217.17 368.413 218.573 367.01C219.976 365.608 221.065 363.923 221.769 362.068C222.473 360.213 222.775 358.23 222.656 356.25V267.188C222.775 265.207 222.473 263.224 221.769 261.369C221.065 259.514 219.976 257.83 218.573 256.427C217.17 255.024 215.486 253.935 213.631 253.231C211.776 252.527 209.793 252.225 207.812 252.344ZM192.969 341.406H133.594V282.031H192.969V341.406Z" fill="white"/>
<path d="M371.094 356.25V267.187C371.213 265.207 370.91 263.224 370.207 261.369C369.503 259.514 368.413 257.83 367.011 256.427C365.608 255.024 363.923 253.935 362.068 253.231C360.213 252.527 358.23 252.225 356.25 252.344H267.188C265.207 252.225 263.224 252.527 261.369 253.231C259.514 253.935 257.83 255.024 256.427 256.427C255.024 257.83 253.935 259.514 253.231 261.369C252.527 263.224 252.225 265.207 252.344 267.187V356.25C252.225 358.23 252.527 360.213 253.231 362.068C253.935 363.923 255.024 365.608 256.427 367.01C257.83 368.413 259.514 369.503 261.369 370.206C263.224 370.91 265.207 371.213 267.188 371.094H356.25C360.184 371.086 363.955 369.519 366.737 366.737C369.52 363.955 371.086 360.184 371.094 356.25ZM341.406 341.406H282.031V282.031H341.406V341.406ZM207.813 103.906H118.75C116.77 103.787 114.787 104.089 112.932 104.793C111.077 105.497 109.392 106.587 107.989 107.989C106.587 109.392 105.497 111.077 104.793 112.932C104.09 114.786 103.787 116.77 103.906 118.75V207.812C103.787 209.793 104.09 211.776 104.793 213.631C105.497 215.486 106.587 217.17 107.989 218.573C109.392 219.976 111.077 221.065 112.932 221.769C114.787 222.473 116.77 222.775 118.75 222.656H207.813C209.793 222.775 211.776 222.473 213.631 221.769C215.486 221.065 217.17 219.976 218.573 218.573C219.976 217.17 221.065 215.486 221.769 213.631C222.473 211.776 222.775 209.793 222.656 207.812V118.75C222.775 116.77 222.473 114.786 221.769 112.932C221.065 111.077 219.976 109.392 218.573 107.989C217.17 106.587 215.486 105.497 213.631 104.793C211.776 104.089 209.793 103.787 207.813 103.906ZM192.969 192.969H133.594V133.594H192.969V192.969ZM267.188 222.656H356.25C358.23 222.775 360.213 222.473 362.068 221.769C363.923 221.065 365.608 219.976 367.011 218.573C368.413 217.17 369.503 215.486 370.207 213.631C370.91 211.776 371.213 209.793 371.094 207.812V118.75C371.213 116.77 370.91 114.786 370.207 112.932C369.503 111.077 368.413 109.392 367.011 107.989C365.608 106.587 363.923 105.497 362.068 104.793C360.213 104.089 358.23 103.787 356.25 103.906H267.188C265.207 103.787 263.224 104.089 261.369 104.793C259.514 105.497 257.83 106.587 256.427 107.989C255.024 109.392 253.935 111.077 253.231 112.932C252.527 114.786 252.225 116.77 252.344 118.75V207.812C252.352 211.747 253.918 215.518 256.7 218.3C259.482 221.082 263.253 222.648 267.188 222.656ZM282.031 133.594H341.406V192.969H282.031V133.594Z" fill="white"/>
<path d="M59.375 59.375H133.594V29.6875H59.375C51.5086 29.711 43.9711 32.8463 38.4087 38.4087C32.8463 43.9711 29.711 51.5086 29.6875 59.375V415.625C29.711 423.491 32.8463 431.029 38.4087 436.591C43.9711 442.154 51.5086 445.289 59.375 445.312H133.594V415.625H59.375V59.375Z" fill="white"/>
</svg>
