<svg width="40" height="34" viewBox="0 0 40 34" fill="none" xmlns="http://www.w3.org/2000/svg">
<g filter="url(#filter0_d_3_461)">
<path d="M27.4535 20.562C30.2819 17.49 29.9971 13.545 29.9881 13.5V1.5C29.9881 1.10218 29.8302 0.720645 29.5491 0.43934C29.268 0.158036 28.8867 0 28.4892 0H19.4959C17.8427 0 16.4982 1.3455 16.4982 3V13.5C16.4982 13.8978 16.6561 14.2794 16.9372 14.5607C17.2183 14.842 17.5995 15 17.9971 15H22.6106C22.5789 15.7416 22.3575 16.4626 21.9676 17.094C21.2062 18.2955 19.7717 19.116 17.7018 19.53L16.4982 19.77V24H17.9971C22.1684 24 25.3506 22.8435 27.4535 20.562ZM10.9553 20.562C13.7852 17.49 13.4989 13.545 13.4899 13.5V1.5C13.4899 1.10218 13.332 0.720645 13.0509 0.43934C12.7698 0.158036 12.3886 0 11.991 0H2.99776C1.3445 0 0 1.3455 0 3V13.5C0 13.8978 0.157917 14.2794 0.439012 14.5607C0.720106 14.842 1.10135 15 1.49888 15H6.11243C6.08077 15.7416 5.85936 16.4626 5.46941 17.094C4.70798 18.2955 3.27355 19.116 1.2036 19.53L0 19.77V24H1.49888C5.67026 24 8.85239 22.8435 10.9553 20.562Z" fill="white"/>
</g>
<defs>
<filter id="filter0_d_3_461" x="0" y="0" width="40" height="34" filterUnits="userSpaceOnUse" color-interpolation-filters="sRGB">
<feFlood flood-opacity="0" result="BackgroundImageFix"/>
<feColorMatrix in="SourceAlpha" type="matrix" values="0 0 0 0 0 0 0 0 0 0 0 0 0 0 0 0 0 0 127 0" result="hardAlpha"/>
<feOffset dx="10" dy="10"/>
<feComposite in2="hardAlpha" operator="out"/>
<feColorMatrix type="matrix" values="0 0 0 0 0 0 0 0 0 0 0 0 0 0 0 0 0 0 0.25 0"/>
<feBlend mode="normal" in2="BackgroundImageFix" result="effect1_dropShadow_3_461"/>
<feBlend mode="normal" in="SourceGraphic" in2="effect1_dropShadow_3_461" result="shape"/>
</filter>
</defs>
</svg>
