<svg id="svg" version="1.1" xmlns="http://www.w3.org/2000/svg" xmlns:xlink="http://www.w3.org/1999/xlink" width="400" height="120" viewBox="0, 0, 400,120"><g id="svgg"><path id="path0" d="M0.000 60.000 L 0.000 120.000 200.000 120.000 L 400.000 120.000 400.000 60.000 L 400.000 0.000 200.000 0.000 L 0.000 0.000 0.000 60.000 M312.000 21.599 C 312.000 21.745,311.411 22.440,310.690 23.144 C 308.571 25.213,307.661 24.238,309.600 21.974 C 310.131 21.353,312.000 21.062,312.000 21.599 M114.383 23.256 C 116.811 24.766,117.233 27.863,117.503 46.167 C 117.669 57.420,117.923 65.012,118.141 65.247 C 118.182 65.291,118.925 63.416,119.792 61.080 C 120.658 58.744,121.603 56.233,121.890 55.500 C 122.832 53.097,122.928 52.846,123.350 51.667 C 123.579 51.025,123.955 50.050,124.185 49.500 C 124.415 48.950,125.289 46.700,126.128 44.500 C 133.814 24.343,134.378 23.657,143.802 23.023 C 160.993 21.867,163.140 22.676,165.123 31.062 C 166.767 38.020,167.681 55.344,166.450 56.244 C 165.620 56.851,146.374 56.857,146.178 56.250 C 146.045 55.837,145.718 51.754,145.665 49.833 C 145.636 48.785,145.308 49.413,144.358 52.333 C 143.838 53.934,135.613 75.175,135.142 76.135 C 134.880 76.667,134.667 77.219,134.667 77.361 C 134.667 77.874,130.815 86.065,129.911 87.474 C 128.677 89.396,127.418 90.686,125.782 91.703 C 124.528 92.483,124.309 92.502,115.738 92.604 C 101.171 92.776,100.523 92.223,99.018 78.333 C 98.809 76.408,98.503 73.633,98.337 72.167 C 98.172 70.700,97.935 68.037,97.812 66.250 C 97.569 62.730,97.412 62.427,96.691 64.083 C 96.431 64.679,95.787 66.142,95.259 67.333 C 93.614 71.046,93.056 72.390,91.663 76.000 C 90.920 77.925,90.183 79.800,90.025 80.167 C 89.867 80.533,89.474 81.583,89.153 82.500 C 85.935 91.677,83.544 92.882,69.091 92.608 C 56.874 92.376,54.978 90.562,53.995 78.167 C 53.293 69.305,52.316 70.096,64.043 70.039 C 72.711 69.998,72.700 70.000,73.091 68.403 L 73.278 67.639 66.389 67.861 C 62.600 67.983,57.400 68.177,54.833 68.291 L 50.167 68.500 47.791 74.500 C 40.393 93.189,41.294 92.475,25.245 92.367 C 15.875 92.305,14.829 92.097,12.927 89.922 C 12.348 89.260,11.999 88.586,10.640 85.500 C 10.176 84.447,9.645 79.654,9.310 73.500 C 8.669 61.741,8.583 58.758,8.877 58.576 C 9.042 58.474,13.674 58.349,19.172 58.298 L 29.167 58.205 29.260 62.842 C 29.367 68.168,29.307 68.189,31.629 62.000 C 32.420 59.892,33.265 57.717,33.508 57.167 C 33.750 56.617,34.146 55.529,34.389 54.750 C 34.631 53.971,34.942 53.333,35.081 53.333 C 35.220 53.333,35.333 53.038,35.333 52.678 C 35.333 52.318,35.579 51.455,35.880 50.761 C 36.180 50.068,36.540 49.200,36.679 48.833 C 36.818 48.467,37.172 47.619,37.466 46.950 C 37.760 46.280,38.000 45.566,38.000 45.362 C 38.000 45.158,38.135 44.730,38.299 44.412 C 38.464 44.094,39.009 42.708,39.510 41.333 C 40.011 39.958,40.608 38.383,40.838 37.833 C 47.244 22.483,47.009 22.666,60.309 22.668 C 72.185 22.670,72.280 22.755,72.365 33.527 C 72.382 35.712,72.505 38.925,72.638 40.667 C 72.954 44.816,73.397 44.545,65.978 44.740 C 59.474 44.910,59.238 44.960,58.848 46.250 L 58.622 47.000 66.894 46.963 C 71.444 46.942,76.592 46.830,78.333 46.713 L 81.500 46.500 82.293 44.833 C 82.730 43.917,83.205 42.867,83.350 42.500 C 83.495 42.133,84.000 40.953,84.473 39.876 C 84.946 38.800,85.333 37.798,85.333 37.650 C 85.333 37.501,85.795 36.357,86.359 35.107 C 92.118 22.342,92.082 22.365,106.500 22.457 C 112.812 22.498,113.231 22.540,114.383 23.256 M105.736 24.328 C 105.133 24.471,104.310 24.868,103.908 25.211 C 102.628 26.301,101.344 27.819,101.339 28.250 C 101.336 28.479,101.183 28.667,101.000 28.667 C 100.817 28.667,100.667 28.881,100.667 29.143 C 100.667 29.405,100.479 29.817,100.250 30.060 C 99.800 30.536,97.329 35.345,97.332 35.741 C 97.333 35.873,96.940 36.848,96.460 37.908 C 95.261 40.552,94.896 41.446,93.837 44.333 C 92.963 46.719,92.712 47.381,92.035 49.083 C 91.871 49.496,91.482 50.583,91.170 51.500 C 90.859 52.417,90.415 53.617,90.185 54.167 C 89.955 54.717,89.579 55.692,89.350 56.333 C 89.120 56.975,88.807 57.800,88.653 58.167 C 88.499 58.533,88.049 59.808,87.652 61.000 C 87.256 62.192,86.797 63.504,86.632 63.917 C 86.468 64.329,86.198 65.004,86.034 65.417 C 85.869 65.829,85.546 66.692,85.317 67.333 C 85.088 67.975,84.711 68.950,84.481 69.500 C 84.251 70.050,83.438 72.075,82.675 74.000 C 81.911 75.925,80.998 78.136,80.644 78.913 C 80.290 79.690,80.000 80.397,80.000 80.484 C 80.000 81.259,76.759 87.270,75.521 88.790 C 73.747 90.968,73.765 91.294,75.627 90.680 C 78.046 89.881,82.000 85.189,82.000 83.115 C 82.000 82.869,82.150 82.667,82.333 82.667 C 82.517 82.667,82.667 82.452,82.667 82.190 C 82.667 81.928,83.117 80.741,83.667 79.553 C 84.217 78.364,84.667 77.302,84.667 77.192 C 84.667 77.083,84.984 76.282,85.372 75.413 C 85.760 74.544,86.295 73.308,86.561 72.667 C 87.500 70.403,87.603 70.156,88.094 69.000 C 88.367 68.358,88.788 67.233,89.031 66.500 C 89.274 65.767,89.574 65.017,89.698 64.833 C 89.822 64.650,90.027 64.012,90.155 63.417 C 90.282 62.821,90.524 62.333,90.693 62.333 C 90.862 62.333,91.000 61.988,91.000 61.567 C 91.000 61.145,91.125 60.658,91.278 60.483 C 91.431 60.309,91.818 59.417,92.137 58.500 C 92.769 56.688,92.990 56.128,93.799 54.283 C 94.093 53.614,94.333 52.899,94.333 52.695 C 94.333 52.491,94.483 52.026,94.667 51.662 C 94.850 51.298,95.150 50.702,95.333 50.338 C 95.517 49.974,95.667 49.509,95.667 49.305 C 95.667 48.943,96.415 47.083,97.028 45.921 C 97.196 45.603,97.333 45.176,97.333 44.972 C 97.333 44.768,97.558 44.091,97.833 43.467 C 98.108 42.844,98.558 41.823,98.833 41.200 C 99.108 40.576,99.333 39.981,99.333 39.876 C 99.333 39.772,99.708 38.867,100.167 37.865 C 100.625 36.863,101.000 35.954,101.000 35.845 C 101.000 34.793,106.366 25.431,107.300 24.854 C 108.418 24.163,107.597 23.887,105.736 24.328 M110.116 24.365 C 108.691 24.777,106.097 27.714,104.667 30.533 C 104.025 31.798,103.388 32.883,103.250 32.944 C 103.112 33.006,103.000 33.343,103.000 33.694 C 103.000 34.046,102.862 34.333,102.693 34.333 C 102.524 34.333,102.288 34.780,102.168 35.326 C 102.048 35.872,101.587 37.034,101.143 37.909 C 100.699 38.784,100.335 39.690,100.335 39.921 C 100.334 40.153,100.201 40.603,100.039 40.921 C 99.545 41.892,99.054 43.123,98.811 44.000 C 98.684 44.458,98.317 45.433,97.996 46.167 C 97.675 46.900,97.222 48.025,96.989 48.667 C 96.757 49.308,96.378 50.283,96.148 50.833 C 95.918 51.383,95.475 52.583,95.163 53.500 C 94.512 55.415,94.274 56.031,93.534 57.717 C 93.240 58.386,93.000 59.106,93.000 59.316 C 93.000 59.527,92.702 60.315,92.339 61.067 C 91.975 61.820,91.583 62.938,91.468 63.551 C 91.353 64.165,91.126 64.667,90.963 64.667 C 90.800 64.667,90.667 65.042,90.667 65.500 C 90.667 65.958,90.535 66.333,90.375 66.333 C 90.215 66.333,89.996 66.772,89.888 67.309 C 89.781 67.845,89.408 68.933,89.059 69.725 C 88.710 70.518,88.159 71.842,87.833 72.667 C 87.508 73.492,86.963 74.803,86.621 75.580 C 86.279 76.357,86.000 77.084,86.000 77.196 C 86.000 77.308,85.760 77.947,85.466 78.616 C 85.172 79.286,84.812 80.133,84.664 80.500 C 83.985 82.190,82.141 85.845,81.917 85.944 C 81.779 86.006,81.667 86.262,81.667 86.515 C 81.667 86.767,80.990 87.805,80.163 88.820 L 78.659 90.667 79.606 90.667 C 81.151 90.667,83.490 88.857,84.907 86.563 C 86.542 83.918,86.421 84.181,90.151 75.167 C 90.833 73.517,91.592 71.717,91.837 71.167 C 92.082 70.617,92.614 69.267,93.019 68.167 C 93.424 67.067,93.865 66.017,93.998 65.833 C 94.132 65.650,94.344 65.071,94.470 64.547 C 94.595 64.022,94.977 62.972,95.318 62.213 C 95.659 61.454,96.574 59.108,97.350 57.000 C 98.127 54.892,99.021 52.567,99.336 51.833 C 99.652 51.100,100.321 49.375,100.824 48.000 C 102.035 44.688,104.220 39.183,105.023 37.420 C 105.377 36.643,105.667 35.940,105.667 35.857 C 105.667 34.734,109.700 27.580,111.488 25.531 C 112.839 23.984,112.481 23.679,110.116 24.365 M55.635 24.777 C 54.581 25.252,52.333 27.193,52.333 27.629 C 52.333 27.802,52.221 27.994,52.083 28.056 C 51.720 28.217,50.000 30.923,50.000 31.333 C 50.000 31.524,49.625 32.274,49.167 33.000 C 48.708 33.726,48.333 34.539,48.333 34.807 C 48.333 35.075,48.195 35.380,48.026 35.484 C 47.856 35.589,47.619 36.123,47.499 36.670 C 47.379 37.218,47.142 37.667,46.974 37.667 C 46.805 37.667,46.667 37.958,46.667 38.314 C 46.667 38.670,46.517 39.053,46.333 39.167 C 46.150 39.280,46.000 39.604,46.000 39.886 C 46.000 40.367,45.331 42.100,44.639 43.412 C 44.471 43.730,44.333 44.158,44.333 44.362 C 44.333 44.566,44.093 45.280,43.799 45.950 C 43.052 47.654,42.816 48.266,42.176 50.167 C 41.867 51.083,41.494 52.133,41.347 52.500 C 40.995 53.378,39.985 55.991,39.673 56.833 C 39.537 57.200,39.180 58.068,38.880 58.761 C 38.579 59.455,38.333 60.318,38.333 60.678 C 38.333 61.038,38.183 61.333,38.000 61.333 C 37.817 61.333,37.667 61.624,37.667 61.980 C 37.667 62.336,37.517 62.720,37.333 62.833 C 37.150 62.947,37.000 63.377,37.000 63.789 C 37.000 64.202,36.780 64.830,36.511 65.186 C 36.241 65.542,36.016 66.162,36.011 66.564 C 36.005 66.965,35.867 67.376,35.704 67.477 C 35.541 67.578,35.306 68.064,35.182 68.558 C 35.058 69.051,34.666 70.056,34.312 70.790 C 33.957 71.524,33.667 72.262,33.667 72.429 C 33.667 72.727,33.462 73.227,32.026 76.441 C 31.630 77.326,31.219 78.488,31.112 79.025 C 31.004 79.561,30.785 80.000,30.625 80.000 C 30.465 80.000,30.333 80.202,30.333 80.449 C 30.333 80.696,30.127 81.333,29.875 81.865 C 29.623 82.398,29.211 83.321,28.960 83.917 C 28.709 84.513,28.407 85.000,28.288 85.000 C 28.169 85.000,27.985 85.348,27.878 85.774 C 27.771 86.200,26.935 87.550,26.020 88.774 C 24.373 90.977,24.365 91.000,25.232 91.000 C 26.430 91.000,28.658 89.634,29.663 88.283 C 31.016 86.464,32.000 84.984,32.000 84.768 C 32.000 84.657,32.387 83.726,32.859 82.700 C 33.331 81.673,33.948 80.308,34.229 79.667 C 34.510 79.025,34.874 78.240,35.037 77.921 C 35.200 77.603,35.333 77.194,35.333 77.014 C 35.333 76.833,35.721 75.818,36.195 74.759 C 37.759 71.263,38.000 70.649,38.000 70.155 C 38.000 69.887,38.150 69.667,38.333 69.667 C 38.517 69.667,38.667 69.365,38.667 68.995 C 38.667 68.626,38.809 68.064,38.984 67.745 C 39.158 67.427,39.546 66.567,39.845 65.833 C 40.145 65.100,40.527 64.240,40.695 63.921 C 40.863 63.603,41.000 63.176,41.000 62.972 C 41.000 62.627,41.714 60.831,42.319 59.656 C 42.464 59.375,42.688 58.664,42.817 58.076 C 42.946 57.489,43.190 56.922,43.359 56.817 C 43.528 56.713,43.667 56.261,43.667 55.814 C 43.667 55.366,43.780 55.000,43.919 55.000 C 44.058 55.000,44.369 54.362,44.611 53.583 C 44.854 52.804,45.249 51.717,45.491 51.167 C 45.732 50.617,46.489 48.667,47.173 46.833 C 48.391 43.568,48.826 42.485,49.833 40.200 C 50.108 39.576,50.333 38.981,50.333 38.876 C 50.333 38.772,50.717 37.819,51.186 36.760 C 51.654 35.700,52.197 34.458,52.391 34.000 C 52.585 33.542,52.905 32.867,53.100 32.500 C 53.296 32.133,53.679 31.383,53.952 30.833 C 54.225 30.283,54.535 29.758,54.641 29.667 C 54.747 29.575,55.122 28.975,55.475 28.333 C 55.828 27.692,56.211 27.092,56.326 27.000 C 56.441 26.908,56.958 26.271,57.474 25.583 L 58.412 24.333 57.456 24.360 C 56.930 24.375,56.111 24.563,55.635 24.777 M59.769 25.098 C 58.480 25.776,55.667 29.101,55.667 29.947 C 55.667 30.129,55.553 30.328,55.415 30.389 C 55.027 30.560,52.188 36.522,50.997 39.667 C 50.754 40.308,50.451 40.983,50.323 41.167 C 50.196 41.350,49.989 41.929,49.864 42.453 C 49.738 42.978,49.357 44.028,49.016 44.787 C 48.676 45.546,48.142 46.917,47.830 47.833 C 47.222 49.620,46.741 50.858,46.337 51.678 C 46.198 51.959,45.979 52.669,45.850 53.257 C 45.721 53.845,45.477 54.411,45.308 54.516 C 45.138 54.620,45.000 55.072,45.000 55.520 C 45.000 55.967,44.867 56.333,44.704 56.333 C 44.541 56.333,44.306 56.877,44.181 57.541 C 44.056 58.205,43.791 59.068,43.592 59.458 C 42.963 60.687,42.800 61.115,42.142 63.247 C 41.789 64.391,41.387 65.329,41.250 65.330 C 41.112 65.332,41.000 65.553,41.000 65.822 C 41.000 66.091,40.754 66.878,40.454 67.572 C 40.153 68.266,39.794 69.133,39.654 69.500 C 39.515 69.867,39.161 70.714,38.867 71.384 C 38.574 72.053,38.333 72.841,38.333 73.134 C 38.333 73.427,38.183 73.667,38.000 73.667 C 37.817 73.667,37.667 73.958,37.667 74.314 C 37.667 74.670,37.517 75.053,37.333 75.167 C 37.150 75.280,36.999 75.626,36.998 75.936 C 36.997 76.246,36.772 76.930,36.498 77.455 C 36.224 77.980,36.000 78.617,36.000 78.871 C 36.000 79.125,35.850 79.333,35.667 79.333 C 35.483 79.333,35.333 79.589,35.333 79.901 C 35.333 80.888,31.770 87.772,30.486 89.266 C 29.051 90.934,29.161 91.257,30.978 90.713 C 32.362 90.298,35.667 87.303,35.667 86.464 C 35.667 86.209,35.817 86.000,36.000 86.000 C 36.183 86.000,36.333 85.840,36.333 85.645 C 36.333 85.450,36.708 84.471,37.167 83.469 C 37.625 82.467,38.000 81.587,38.000 81.513 C 38.000 81.440,38.450 80.408,39.000 79.219 C 39.550 78.031,40.000 76.969,40.000 76.859 C 40.000 76.749,40.292 76.024,40.650 75.246 C 41.007 74.469,41.915 72.258,42.666 70.333 C 43.418 68.408,44.239 66.383,44.490 65.833 C 44.742 65.283,45.329 63.818,45.795 62.576 C 46.685 60.206,47.515 58.227,48.028 57.255 C 48.196 56.936,48.333 56.509,48.333 56.305 C 48.333 56.101,48.574 55.386,48.867 54.717 C 49.161 54.048,49.515 53.200,49.654 52.833 C 49.794 52.467,50.153 51.599,50.454 50.905 C 50.754 50.212,51.000 49.349,51.000 48.989 C 51.000 48.628,51.112 48.332,51.250 48.330 C 51.387 48.329,51.785 47.391,52.134 46.247 C 52.483 45.103,52.870 44.017,52.995 43.833 C 53.120 43.650,53.420 42.975,53.663 42.333 C 53.905 41.692,54.456 40.375,54.885 39.407 C 55.315 38.439,55.667 37.554,55.667 37.440 C 55.667 36.836,59.785 28.525,60.344 28.000 C 60.442 27.908,61.092 27.046,61.789 26.083 L 63.057 24.333 62.112 24.348 C 61.592 24.357,60.538 24.694,59.769 25.098 M64.333 25.047 C 63.177 25.751,62.000 26.899,62.000 27.321 C 62.000 27.442,61.737 27.841,61.417 28.207 C 61.096 28.573,60.597 29.314,60.309 29.853 C 60.021 30.392,59.616 31.133,59.409 31.500 C 58.764 32.642,56.333 37.999,56.333 38.277 C 56.333 38.423,56.029 39.171,55.658 39.939 C 55.286 40.708,54.893 41.786,54.783 42.335 C 54.673 42.884,54.452 43.333,54.292 43.333 C 54.131 43.333,54.000 43.708,54.000 44.167 C 54.000 44.625,53.863 45.000,53.696 45.000 C 53.529 45.000,53.291 45.600,53.167 46.333 C 53.043 47.067,52.805 47.667,52.637 47.667 C 52.470 47.667,52.333 48.012,52.333 48.433 C 52.333 48.855,52.208 49.343,52.055 49.517 C 51.902 49.691,51.515 50.583,51.196 51.500 C 50.876 52.417,50.492 53.467,50.343 53.833 C 50.193 54.200,49.816 55.250,49.504 56.167 C 49.192 57.083,48.716 58.327,48.447 58.930 C 48.177 59.533,47.732 60.808,47.457 61.763 C 47.182 62.718,46.667 64.136,46.312 64.913 C 45.957 65.690,45.667 66.430,45.667 66.557 C 45.667 66.779,43.290 72.794,42.660 74.167 C 42.492 74.533,41.765 76.333,41.044 78.167 C 39.221 82.802,37.275 86.593,35.684 88.605 C 33.732 91.075,33.860 91.316,36.584 90.297 C 37.838 89.828,40.175 87.233,41.074 85.313 C 42.562 82.133,43.667 79.652,43.667 79.488 C 43.667 79.401,44.042 78.553,44.500 77.603 C 44.958 76.653,45.333 75.738,45.333 75.571 C 45.333 75.404,45.553 74.795,45.822 74.217 C 46.511 72.739,48.241 68.508,49.046 66.333 C 49.420 65.325,49.920 64.050,50.158 63.500 C 50.395 62.950,51.671 59.650,52.993 56.167 C 54.315 52.683,55.517 49.533,55.664 49.167 C 55.812 48.800,56.120 47.975,56.350 47.333 C 56.579 46.692,56.953 45.717,57.180 45.167 C 57.407 44.617,58.665 41.564,59.974 38.383 C 62.984 31.071,63.735 29.692,67.291 24.944 C 67.970 24.037,65.871 24.110,64.333 25.047 M95.146 24.958 C 92.944 26.301,90.365 30.175,88.018 35.667 C 87.430 37.042,86.743 38.623,86.492 39.181 C 86.240 39.739,85.193 42.439,84.164 45.181 C 82.260 50.257,81.474 52.308,80.974 53.500 C 80.820 53.867,80.153 55.667,79.492 57.500 C 78.831 59.333,77.932 61.733,77.496 62.833 C 77.060 63.933,76.161 66.258,75.499 68.000 C 74.118 71.633,73.858 72.285,71.984 76.833 C 68.602 85.039,67.423 87.271,65.200 89.674 L 63.973 91.000 65.035 91.000 C 68.226 91.000,70.811 87.627,74.361 78.833 C 74.509 78.467,74.933 77.474,75.303 76.628 C 75.673 75.782,76.300 74.207,76.696 73.128 C 77.092 72.049,77.547 71.024,77.708 70.850 C 77.869 70.676,78.000 70.330,78.000 70.082 C 78.000 69.833,78.285 69.001,78.633 68.232 C 78.981 67.463,80.175 64.468,81.286 61.578 C 82.398 58.687,83.521 55.837,83.781 55.245 C 84.042 54.652,84.445 53.642,84.678 53.000 C 85.129 51.752,85.765 50.173,86.528 48.405 C 86.788 47.803,87.000 47.016,87.000 46.655 C 87.000 46.295,87.150 46.000,87.333 46.000 C 87.517 46.000,87.667 45.723,87.667 45.385 C 87.667 44.824,88.221 43.407,89.021 41.921 C 89.193 41.603,89.333 41.115,89.333 40.838 C 89.333 40.560,89.483 40.333,89.667 40.333 C 89.850 40.333,90.000 40.019,90.000 39.635 C 90.000 39.251,90.212 38.538,90.470 38.051 C 90.729 37.565,91.194 36.567,91.504 35.833 C 92.788 32.797,95.143 28.393,96.315 26.833 C 97.004 25.917,97.674 24.979,97.804 24.750 C 98.175 24.093,96.328 24.238,95.146 24.958 M99.721 24.897 C 98.177 25.657,96.103 28.328,94.915 31.083 C 94.698 31.587,94.403 32.000,94.260 32.000 C 94.117 32.000,94.000 32.151,94.000 32.335 C 94.000 32.519,93.625 33.447,93.167 34.397 C 92.708 35.347,92.333 36.322,92.333 36.562 C 92.333 36.803,92.200 37.000,92.037 37.000 C 91.874 37.000,91.642 37.525,91.522 38.167 C 91.402 38.808,91.160 39.333,90.985 39.333 C 90.810 39.333,90.667 39.699,90.667 40.147 C 90.667 40.595,90.544 41.036,90.395 41.129 C 90.246 41.221,89.833 42.205,89.478 43.315 C 89.124 44.425,88.721 45.333,88.583 45.333 C 88.446 45.333,88.333 45.699,88.333 46.147 C 88.333 46.595,88.195 47.046,88.026 47.151 C 87.856 47.255,87.612 47.822,87.483 48.410 C 87.354 48.997,87.118 49.746,86.958 50.072 C 86.798 50.399,86.536 50.934,86.376 51.261 C 86.216 51.588,85.977 52.348,85.844 52.950 C 85.712 53.552,85.394 54.447,85.137 54.939 C 84.881 55.431,84.670 56.023,84.669 56.255 C 84.668 56.486,84.532 56.936,84.367 57.255 C 84.202 57.573,83.432 59.558,82.656 61.667 C 81.880 63.775,81.057 65.950,80.828 66.500 C 80.599 67.050,80.225 68.100,79.996 68.833 C 79.767 69.567,79.469 70.317,79.334 70.500 C 79.199 70.683,78.757 71.733,78.352 72.833 C 77.947 73.933,77.420 75.283,77.180 75.833 C 76.941 76.383,76.183 78.183,75.497 79.833 C 73.260 85.211,71.912 87.624,69.916 89.823 C 67.821 92.132,71.904 90.784,74.120 88.435 C 75.688 86.773,76.922 84.232,80.723 74.833 C 81.465 73.000,82.269 71.050,82.511 70.500 C 82.753 69.950,83.647 67.735,84.498 65.578 C 85.349 63.421,86.259 61.246,86.520 60.745 C 86.782 60.244,86.997 59.644,86.998 59.412 C 86.999 59.180,87.137 58.730,87.305 58.412 C 87.918 57.250,88.667 55.390,88.667 55.028 C 88.667 54.824,88.817 54.360,89.000 53.995 C 89.809 52.388,89.928 52.086,90.150 51.076 C 90.279 50.489,90.523 49.922,90.692 49.817 C 90.862 49.713,91.000 49.291,91.000 48.880 C 91.000 48.469,91.126 47.991,91.280 47.817 C 91.434 47.642,91.756 46.975,91.997 46.333 C 92.237 45.692,92.619 44.717,92.845 44.167 C 93.072 43.617,93.672 42.117,94.178 40.833 C 94.684 39.550,95.363 37.900,95.687 37.167 C 96.315 35.746,97.277 33.524,98.034 31.750 C 98.288 31.154,98.609 30.667,98.748 30.667 C 98.887 30.667,99.000 30.509,99.000 30.317 C 99.000 29.922,100.978 26.749,101.696 25.993 C 103.126 24.486,103.151 24.333,101.957 24.341 C 101.339 24.345,100.333 24.595,99.721 24.897 M139.500 24.741 C 136.421 25.832,133.734 29.856,130.130 38.767 C 129.300 40.820,128.353 43.100,128.025 43.833 C 127.697 44.567,127.326 45.596,127.199 46.120 C 127.072 46.645,126.695 47.695,126.359 48.453 C 126.024 49.212,125.119 51.558,124.347 53.667 C 123.575 55.775,122.823 57.800,122.675 58.167 C 122.214 59.312,119.261 67.061,118.420 69.333 C 117.979 70.525,117.416 71.950,117.169 72.500 C 116.922 73.050,116.163 74.925,115.484 76.667 C 113.418 81.959,110.791 87.154,109.183 89.128 L 107.659 91.000 108.764 91.000 C 110.538 91.000,115.333 86.511,115.333 84.850 C 115.333 84.747,115.708 83.886,116.167 82.936 C 116.625 81.986,117.000 81.091,117.000 80.947 C 117.000 80.803,117.391 79.818,117.868 78.759 C 118.345 77.700,118.884 76.458,119.065 76.000 C 119.247 75.542,119.606 74.742,119.864 74.223 C 120.122 73.704,120.333 72.991,120.333 72.640 C 120.333 72.288,120.458 72.000,120.611 72.000 C 120.764 72.000,121.176 71.100,121.527 70.000 C 121.879 68.900,122.279 68.000,122.417 68.000 C 122.554 68.000,122.667 67.712,122.667 67.360 C 122.667 67.009,122.883 66.296,123.147 65.777 C 123.412 65.258,123.959 63.933,124.363 62.833 C 124.767 61.733,125.280 60.383,125.504 59.833 C 125.727 59.283,126.170 58.158,126.489 57.333 C 126.808 56.508,127.203 55.573,127.368 55.255 C 127.532 54.936,127.667 54.374,127.667 54.005 C 127.667 53.635,127.779 53.332,127.917 53.330 C 128.054 53.329,128.455 52.391,128.808 51.247 C 129.161 50.103,129.575 48.942,129.727 48.667 C 129.880 48.392,130.542 46.742,131.200 45.000 C 131.857 43.258,132.606 41.346,132.864 40.750 C 133.288 39.771,133.891 38.340,134.655 36.500 C 135.078 35.483,135.859 33.623,136.370 32.417 C 136.623 31.821,136.943 31.333,137.081 31.333 C 137.220 31.333,137.333 31.133,137.333 30.889 C 137.333 30.496,139.757 26.766,140.293 26.333 C 140.728 25.983,141.285 24.729,141.091 24.536 C 140.842 24.286,140.746 24.299,139.500 24.741 M143.248 25.024 C 141.043 26.188,138.015 30.834,135.336 37.167 C 134.948 38.083,134.504 39.133,134.349 39.500 C 134.194 39.867,133.880 40.692,133.650 41.333 C 133.099 42.875,132.351 44.694,131.972 45.412 C 131.804 45.730,131.667 46.158,131.667 46.362 C 131.667 46.723,130.918 48.584,130.305 49.745 C 130.137 50.064,130.000 50.566,130.000 50.862 C 130.000 51.382,129.862 51.740,128.398 55.024 C 128.025 55.862,127.616 57.099,127.489 57.774 C 127.363 58.448,127.126 59.000,126.963 59.000 C 126.800 59.000,126.667 59.366,126.667 59.814 C 126.667 60.261,126.528 60.713,126.359 60.817 C 126.190 60.922,125.946 61.489,125.817 62.076 C 125.688 62.664,125.464 63.375,125.319 63.656 C 124.880 64.510,124.102 66.425,123.623 67.833 C 123.374 68.567,123.079 69.242,122.968 69.333 C 122.857 69.425,122.684 69.875,122.583 70.333 C 122.369 71.312,121.574 73.427,121.331 73.667 C 121.237 73.758,120.879 74.658,120.534 75.667 C 120.189 76.675,119.778 77.643,119.620 77.817 C 119.462 77.991,119.333 78.403,119.333 78.733 C 119.333 79.063,119.183 79.333,119.000 79.333 C 118.817 79.333,118.667 79.574,118.667 79.869 C 118.667 80.366,117.627 82.781,115.897 86.302 C 115.500 87.110,114.522 88.497,113.723 89.385 L 112.272 91.000 113.403 91.000 C 115.092 91.000,119.667 86.989,119.667 85.508 C 119.667 85.422,120.021 84.560,120.454 83.592 C 120.888 82.625,121.812 80.483,122.509 78.833 C 123.206 77.183,124.047 75.216,124.376 74.462 C 124.706 73.707,125.300 72.207,125.696 71.128 C 126.092 70.049,126.547 69.024,126.708 68.850 C 126.869 68.676,127.000 68.320,127.000 68.058 C 127.000 67.797,127.362 66.740,127.804 65.708 C 128.247 64.677,129.241 62.183,130.013 60.167 C 130.786 58.150,131.677 55.900,131.994 55.167 C 132.311 54.433,132.674 53.404,132.801 52.880 C 132.928 52.355,133.339 51.230,133.715 50.380 C 134.092 49.529,134.515 48.533,134.655 48.167 C 134.796 47.800,135.076 47.125,135.279 46.667 C 135.481 46.208,136.106 44.633,136.667 43.167 C 137.228 41.700,137.832 40.162,138.010 39.750 C 138.188 39.337,138.473 38.662,138.644 38.250 C 140.709 33.268,142.956 28.788,143.917 27.740 C 144.146 27.490,144.334 27.184,144.334 27.060 C 144.334 26.935,144.709 26.398,145.167 25.865 C 146.611 24.186,145.641 23.761,143.248 25.024 M148.123 24.931 C 145.948 26.117,142.212 31.896,139.998 37.500 C 139.290 39.292,138.603 40.890,138.317 41.412 C 138.143 41.730,138.000 42.293,138.000 42.662 C 138.000 43.031,137.887 43.333,137.750 43.333 C 137.612 43.333,137.206 44.308,136.846 45.500 C 136.486 46.692,136.074 47.667,135.929 47.667 C 135.785 47.667,135.667 47.934,135.667 48.262 C 135.667 48.856,134.634 52.095,133.944 53.667 C 133.519 54.632,133.230 55.377,132.650 57.000 C 132.421 57.642,132.051 58.617,131.828 59.167 C 131.605 59.717,131.009 61.292,130.504 62.667 C 129.116 66.440,126.654 72.709,126.131 73.801 C 125.875 74.334,125.667 74.906,125.667 75.073 C 125.667 75.239,125.292 76.196,124.833 77.198 C 124.375 78.200,124.000 79.080,124.000 79.153 C 124.000 79.227,123.550 80.259,123.000 81.447 C 122.450 82.636,122.000 83.707,122.000 83.829 C 122.000 84.297,119.309 88.556,118.311 89.667 C 117.446 90.630,117.361 90.853,117.825 90.946 C 120.293 91.442,123.751 87.657,126.156 81.826 C 127.405 78.797,128.029 77.315,128.817 75.500 C 129.056 74.950,129.668 73.450,130.178 72.167 C 130.687 70.883,131.231 69.691,131.385 69.517 C 131.540 69.342,131.667 68.990,131.667 68.734 C 131.667 68.477,131.907 67.720,132.201 67.050 C 132.494 66.381,132.851 65.533,132.994 65.167 C 133.137 64.800,133.514 63.825,133.833 63.000 C 134.781 60.548,135.062 59.864,135.372 59.255 C 135.534 58.936,135.667 58.509,135.667 58.305 C 135.667 58.101,135.907 57.386,136.201 56.717 C 137.392 54.003,140.000 46.930,140.000 46.415 C 140.000 46.187,140.150 46.000,140.333 46.000 C 140.517 46.000,140.667 45.698,140.667 45.329 C 140.667 44.960,140.809 44.397,140.984 44.079 C 141.158 43.760,141.533 42.938,141.817 42.250 C 142.101 41.563,142.558 40.490,142.833 39.866 C 143.108 39.243,143.333 38.493,143.333 38.200 C 143.333 37.906,143.483 37.667,143.667 37.667 C 143.850 37.667,144.000 37.440,144.000 37.162 C 144.000 36.885,144.133 36.397,144.296 36.079 C 144.459 35.760,145.298 34.035,146.160 32.245 C 147.023 30.455,148.359 28.130,149.131 27.078 C 149.902 26.027,150.647 24.979,150.786 24.750 C 151.167 24.123,149.380 24.245,148.123 24.931 M152.730 24.892 C 150.680 25.902,148.376 29.367,145.565 35.667 C 145.114 36.675,144.503 38.048,144.206 38.717 C 143.910 39.386,143.667 40.174,143.667 40.467 C 143.667 40.760,143.517 41.000,143.333 41.000 C 143.150 41.000,143.000 41.187,143.000 41.415 C 143.000 41.922,140.079 49.840,139.337 51.344 C 139.198 51.625,138.979 52.336,138.850 52.924 C 138.721 53.511,138.477 54.078,138.308 54.183 C 138.138 54.287,138.000 54.709,138.000 55.120 C 138.000 55.531,137.875 56.009,137.722 56.183 C 137.569 56.357,137.182 57.250,136.863 58.167 C 136.231 59.978,136.010 60.539,135.201 62.384 C 134.907 63.053,134.667 63.768,134.667 63.972 C 134.667 64.176,134.517 64.640,134.333 65.005 C 134.150 65.369,133.850 65.965,133.667 66.329 C 133.483 66.693,133.333 67.158,133.333 67.362 C 133.333 67.566,133.126 68.205,132.873 68.783 C 132.093 70.561,131.453 72.114,130.997 73.333 C 130.756 73.975,130.434 74.643,130.280 74.817 C 130.126 74.991,130.000 75.343,130.000 75.600 C 130.000 75.856,129.757 76.614,129.460 77.283 C 127.632 81.405,127.260 82.225,126.979 82.745 C 126.807 83.064,126.667 83.551,126.667 83.829 C 126.667 84.106,126.547 84.333,126.400 84.333 C 126.254 84.333,125.945 84.855,125.715 85.492 C 125.485 86.129,124.612 87.561,123.775 88.674 C 122.021 91.006,122.081 91.314,124.133 90.531 C 126.693 89.553,128.583 87.050,130.827 81.667 C 131.324 80.475,131.929 79.050,132.171 78.500 C 133.428 75.650,134.310 73.496,137.188 66.252 C 138.918 61.899,140.333 58.142,140.333 57.902 C 140.333 57.663,140.468 57.324,140.632 57.150 C 140.796 56.976,141.312 55.783,141.779 54.500 C 142.247 53.217,143.001 51.192,143.457 50.000 C 143.912 48.808,144.671 46.783,145.144 45.500 C 145.616 44.217,146.146 42.867,146.321 42.500 C 146.496 42.133,147.025 40.858,147.496 39.667 C 148.991 35.886,149.132 35.569,150.912 32.000 C 151.873 30.075,153.417 27.563,154.344 26.417 L 156.030 24.333 154.932 24.341 C 154.328 24.345,153.337 24.593,152.730 24.892 M50.667 24.901 C 49.898 25.181,48.366 26.689,47.349 28.167 C 45.957 30.190,41.667 38.779,41.667 39.543 C 41.667 39.647,41.422 40.280,41.122 40.950 C 39.740 44.042,39.366 44.945,38.828 46.500 C 38.511 47.417,37.989 48.767,37.669 49.500 C 37.349 50.233,36.983 51.208,36.856 51.667 C 36.729 52.125,36.484 52.837,36.312 53.250 C 35.710 54.695,35.394 55.530,34.008 59.333 C 33.239 61.442,32.488 63.467,32.339 63.833 C 32.190 64.200,31.880 65.025,31.650 65.667 C 31.167 67.018,30.633 68.335,29.873 70.050 C 29.576 70.720,29.333 71.428,29.333 71.624 C 29.333 71.819,29.033 72.514,28.667 73.167 C 28.300 73.819,28.000 74.514,28.000 74.710 C 28.000 74.906,27.775 75.576,27.500 76.200 C 26.869 77.630,26.228 79.172,25.644 80.667 C 24.754 82.940,21.950 88.132,21.313 88.684 C 20.958 88.993,20.667 89.350,20.667 89.480 C 20.667 89.609,20.414 89.966,20.104 90.274 C 19.363 91.011,20.568 91.260,22.002 90.666 C 23.924 89.870,28.333 83.991,28.333 82.225 C 28.333 82.103,28.858 80.866,29.500 79.477 C 30.142 78.088,30.667 76.767,30.667 76.542 C 30.667 76.317,30.793 75.991,30.947 75.817 C 31.101 75.643,31.423 74.975,31.663 74.333 C 31.903 73.692,32.318 72.642,32.584 72.000 C 32.850 71.358,33.185 70.533,33.327 70.167 C 34.481 67.202,34.814 66.368,35.212 65.450 C 35.462 64.872,35.667 64.308,35.667 64.196 C 35.667 63.993,36.820 61.287,37.318 60.322 C 37.463 60.041,37.688 59.331,37.817 58.743 C 37.946 58.155,38.190 57.589,38.359 57.484 C 38.528 57.380,38.667 56.958,38.667 56.547 C 38.667 56.136,38.792 55.658,38.944 55.483 C 39.097 55.309,39.859 53.442,40.639 51.333 C 42.318 46.791,42.580 46.132,43.198 44.890 C 43.456 44.371,43.667 43.658,43.667 43.306 C 43.667 42.955,43.780 42.667,43.919 42.667 C 44.058 42.667,44.369 42.029,44.611 41.250 C 44.854 40.471,45.265 39.346,45.526 38.750 C 45.787 38.154,46.225 37.156,46.500 36.533 C 46.775 35.909,47.000 35.234,47.000 35.033 C 47.000 34.831,47.150 34.667,47.333 34.667 C 47.517 34.667,47.667 34.453,47.667 34.191 C 47.667 33.392,50.978 27.339,51.417 27.335 C 51.554 27.334,51.667 27.177,51.667 26.986 C 51.667 26.795,51.967 26.317,52.333 25.923 C 53.405 24.773,52.516 24.228,50.667 24.901 M157.409 25.083 C 157.167 25.381,157.421 26.119,158.297 27.667 C 160.408 31.395,161.332 35.703,161.334 41.833 C 161.335 44.217,161.434 48.079,161.553 50.417 L 161.770 54.667 163.593 54.667 L 165.417 54.667 165.208 53.622 C 165.093 53.047,164.919 49.710,164.821 46.205 C 164.453 33.031,162.868 27.018,159.267 25.137 C 158.160 24.559,157.843 24.550,157.409 25.083 M239.928 25.246 C 241.759 26.417,242.033 26.948,241.173 27.661 C 240.771 27.995,240.486 27.907,239.627 27.185 C 238.497 26.234,237.439 26.175,236.902 27.032 C 236.314 27.970,236.930 29.130,238.810 30.624 C 242.488 33.547,242.876 36.700,239.741 38.188 C 237.519 39.243,233.051 37.045,234.317 35.520 C 234.923 34.790,235.204 34.861,236.219 36.000 C 237.210 37.112,238.147 37.260,239.259 36.481 C 240.693 35.476,240.258 34.373,237.333 31.601 C 234.150 28.585,233.913 27.687,235.800 25.800 C 237.101 24.499,238.474 24.315,239.928 25.246 M264.504 25.657 C 266.576 26.803,266.755 27.058,266.123 27.961 C 265.825 28.387,265.488 28.592,265.374 28.418 C 263.125 24.980,256.684 26.261,255.352 30.410 C 253.707 35.535,261.621 39.386,264.992 35.101 C 266.095 33.699,265.878 33.378,263.753 33.267 C 262.244 33.188,261.816 33.043,261.729 32.583 C 261.630 32.062,261.942 32.000,264.642 32.000 C 268.133 32.000,268.285 32.201,266.903 34.980 C 264.362 40.089,256.821 39.868,254.200 34.608 C 251.143 28.474,258.321 22.238,264.504 25.657 M355.955 25.580 C 357.798 26.951,356.725 31.000,354.519 31.000 C 353.574 31.000,352.000 32.156,352.000 32.849 C 352.000 34.355,354.262 34.320,354.953 32.803 C 355.411 31.799,356.451 31.832,356.598 32.856 C 356.889 34.881,352.856 36.237,351.004 34.737 C 349.193 33.271,349.988 31.390,353.066 29.852 C 355.295 28.738,355.855 27.807,354.880 26.833 C 353.717 25.670,351.684 26.368,351.000 28.166 C 350.562 29.319,349.462 29.179,349.584 27.986 C 349.887 25.037,353.427 23.700,355.955 25.580 M68.272 25.571 C 67.093 26.922,66.954 27.593,67.317 30.200 C 67.509 31.583,67.667 35.112,67.667 38.042 L 67.667 43.370 69.250 43.268 L 70.833 43.167 70.710 35.333 C 70.561 25.842,70.000 23.592,68.272 25.571 M112.364 26.559 C 111.340 28.205,111.329 28.382,112.015 32.333 C 112.395 34.519,113.056 49.058,113.825 72.106 C 113.954 75.958,114.098 76.265,114.768 74.107 C 115.043 73.223,115.589 71.621,115.983 70.546 C 116.781 68.369,116.806 69.957,115.483 39.167 C 114.845 24.331,114.534 23.073,112.364 26.559 M212.600 25.474 C 216.506 27.529,215.183 31.739,210.494 32.178 L 208.025 32.409 207.929 35.288 C 207.842 37.913,207.774 38.167,207.167 38.167 C 206.518 38.167,205.913 26.910,206.482 25.427 C 206.715 24.819,211.423 24.854,212.600 25.474 M224.667 25.833 C 224.667 26.660,224.644 26.667,221.667 26.667 L 218.667 26.667 218.667 28.500 L 218.667 30.333 221.667 30.333 C 224.644 30.333,224.667 30.340,224.667 31.167 C 224.667 31.994,224.644 32.000,221.667 32.000 L 218.667 32.000 218.667 34.333 L 218.667 36.667 221.667 36.667 C 224.655 36.667,224.667 36.670,224.667 37.511 L 224.667 38.355 220.917 38.261 L 217.167 38.167 217.076 32.011 C 216.961 24.289,216.564 25.000,220.990 25.000 L 224.667 25.000 224.667 25.833 M233.112 25.250 C 233.263 25.498,233.048 26.012,230.607 31.217 C 229.907 32.711,229.333 34.098,229.333 34.300 C 229.333 34.502,229.183 34.667,229.000 34.667 C 228.817 34.667,228.667 34.967,228.667 35.333 C 228.667 35.700,228.508 36.000,228.314 36.000 C 228.120 36.000,228.053 36.150,228.167 36.333 C 228.280 36.517,229.414 36.667,230.686 36.667 C 232.932 36.667,233.000 36.691,233.000 37.500 L 233.000 38.333 229.333 38.333 C 225.889 38.333,225.667 38.293,225.667 37.667 C 225.667 37.300,225.817 37.000,226.000 37.000 C 226.183 37.000,226.333 36.859,226.333 36.686 C 226.333 36.319,228.641 31.206,229.839 28.919 C 230.988 26.726,230.953 26.667,228.500 26.667 C 226.411 26.667,226.333 26.637,226.333 25.833 C 226.333 24.998,232.631 24.456,233.112 25.250 M251.979 25.313 C 253.080 26.010,251.720 26.637,248.887 26.737 L 246.167 26.833 246.066 28.583 L 245.965 30.333 248.947 30.333 C 251.365 30.333,251.967 30.434,252.132 30.863 C 252.499 31.820,251.998 32.000,248.965 32.000 L 245.970 32.000 246.068 34.250 L 246.167 36.500 248.887 36.596 C 254.326 36.789,253.469 38.320,247.917 38.328 L 244.333 38.333 244.333 31.667 L 244.333 25.000 247.917 25.005 C 249.887 25.008,251.715 25.146,251.979 25.313 M281.093 26.750 C 286.027 37.050,286.376 37.846,286.083 38.139 C 285.672 38.550,284.636 38.306,284.431 37.750 C 284.312 37.429,284.129 37.092,284.024 37.000 C 283.919 36.908,283.573 36.271,283.255 35.583 L 282.677 34.333 279.922 34.346 L 277.167 34.359 276.211 36.346 C 275.440 37.950,275.102 38.333,274.461 38.333 C 273.366 38.333,273.402 38.190,275.698 33.403 C 276.816 31.073,278.121 28.342,278.599 27.333 C 279.309 25.837,279.856 25.046,280.211 25.005 C 280.235 25.002,280.632 25.787,281.093 26.750 M293.903 25.667 C 293.999 26.033,294.210 26.333,294.372 26.333 C 294.534 26.333,294.667 26.554,294.667 26.824 C 294.667 27.094,295.035 28.107,295.486 29.074 C 295.936 30.042,296.591 31.577,296.941 32.485 C 297.290 33.393,297.709 34.180,297.872 34.232 C 298.148 34.322,299.000 32.844,299.000 32.276 C 299.000 32.134,299.393 31.152,299.873 30.092 C 301.393 26.742,301.667 26.075,301.667 25.722 C 301.667 25.208,303.013 24.880,303.427 25.293 C 303.684 25.551,303.684 25.869,303.427 26.410 C 302.551 28.256,302.000 29.629,302.000 29.967 C 302.000 30.169,301.850 30.333,301.667 30.333 C 301.483 30.333,301.333 30.560,301.333 30.838 C 301.333 31.115,301.189 31.603,301.013 31.921 C 300.680 32.520,299.442 35.357,298.685 37.250 C 298.194 38.480,297.687 38.648,297.430 37.667 C 297.334 37.300,297.123 37.000,296.961 37.000 C 296.799 37.000,296.667 36.773,296.667 36.495 C 296.667 36.218,296.524 35.730,296.349 35.412 C 296.175 35.094,295.800 34.271,295.516 33.583 C 294.996 32.324,294.608 31.416,293.413 28.667 C 291.862 25.098,291.853 25.000,293.087 25.000 C 293.449 25.000,293.805 25.291,293.903 25.667 M313.312 25.313 C 314.414 26.010,313.053 26.637,310.220 26.737 L 307.500 26.833 307.500 28.500 L 307.500 30.167 310.386 30.263 C 312.625 30.337,313.316 30.474,313.470 30.876 C 313.832 31.819,313.322 32.000,310.298 32.000 L 307.303 32.000 307.401 34.250 L 307.500 36.500 310.220 36.596 C 312.063 36.662,313.066 36.845,313.332 37.165 C 314.105 38.096,313.324 38.333,309.480 38.333 L 305.667 38.333 305.667 31.667 L 305.667 25.000 309.250 25.005 C 311.221 25.008,313.049 25.146,313.312 25.313 M321.568 25.413 C 324.863 26.872,324.539 31.338,321.090 32.000 C 319.986 32.212,319.828 32.695,320.576 33.579 C 324.062 37.699,324.375 38.333,322.923 38.333 C 322.247 38.333,321.521 37.567,319.159 34.358 C 317.183 31.675,317.000 31.758,317.000 35.333 C 317.000 38.311,316.994 38.333,316.167 38.333 L 315.333 38.333 315.333 31.889 C 315.333 28.344,315.433 25.344,315.556 25.222 C 315.943 24.835,320.596 24.983,321.568 25.413 M334.000 25.833 C 334.000 26.660,333.978 26.667,331.000 26.667 L 328.000 26.667 328.000 28.500 L 328.000 30.333 331.000 30.333 C 333.978 30.333,334.000 30.340,334.000 31.167 C 334.000 31.994,333.978 32.000,331.000 32.000 L 328.000 32.000 328.000 34.333 L 328.000 36.667 331.000 36.667 C 333.988 36.667,334.000 36.670,334.000 37.511 L 334.000 38.354 330.083 38.261 L 326.167 38.167 326.167 31.833 C 326.167 24.443,325.813 25.012,330.417 25.005 L 334.000 25.000 334.000 25.833 M342.711 25.386 C 343.420 25.598,344.000 25.898,344.000 26.053 C 344.000 26.207,344.208 26.333,344.462 26.333 C 344.907 26.333,345.697 27.311,346.578 28.955 C 347.121 29.968,347.124 33.688,346.583 34.713 C 345.034 37.646,343.656 38.333,339.323 38.333 L 336.000 38.333 336.000 31.889 C 336.000 28.344,336.100 25.344,336.222 25.222 C 336.591 24.853,341.332 24.973,342.711 25.386 M208.250 26.854 C 208.112 26.996,208.000 27.911,208.000 28.889 L 208.000 30.667 209.770 30.667 C 212.343 30.667,213.872 28.738,212.436 27.303 C 212.008 26.874,208.587 26.508,208.250 26.854 M317.222 26.889 C 317.100 27.011,317.000 27.911,317.000 28.889 L 317.000 30.667 318.948 30.667 C 321.216 30.667,322.120 29.999,321.942 28.454 C 321.782 27.074,318.219 25.893,317.222 26.889 M337.581 26.863 C 337.121 27.323,337.289 36.215,337.765 36.610 C 338.339 37.086,342.525 36.503,343.603 35.796 C 346.131 34.140,346.028 29.580,343.422 27.733 C 342.461 27.052,338.049 26.395,337.581 26.863 M155.269 27.575 C 154.314 28.668,154.035 29.479,154.392 30.117 C 155.736 32.518,156.414 37.474,156.632 46.500 L 156.833 54.833 158.253 54.936 C 160.157 55.074,160.102 55.444,159.729 44.941 C 159.291 32.595,157.380 25.156,155.269 27.575 M279.806 28.935 C 279.426 29.193,278.333 31.417,278.333 31.931 C 278.333 32.395,279.839 32.720,280.833 32.470 C 281.826 32.221,281.825 32.249,280.887 30.269 C 280.464 29.375,280.000 28.803,279.806 28.935 M65.174 30.167 C 65.018 30.533,64.557 31.603,64.148 32.543 C 63.107 34.941,62.892 36.612,63.161 40.209 L 63.396 43.333 64.698 43.333 L 66.000 43.333 65.964 38.417 C 65.921 32.541,65.598 29.171,65.174 30.167 M109.121 32.167 C 107.068 37.048,107.126 34.871,108.328 61.833 C 108.872 74.039,109.755 82.866,110.507 83.618 C 111.056 84.167,113.014 78.402,112.698 77.167 C 112.510 76.433,112.201 72.383,112.011 68.167 C 111.820 63.950,111.583 58.850,111.485 56.833 C 111.386 54.817,111.085 48.667,110.817 43.167 C 110.549 37.667,110.215 32.567,110.075 31.833 L 109.821 30.500 109.121 32.167 M152.022 33.454 C 151.086 35.375,150.965 35.907,151.152 37.260 C 151.272 38.125,151.448 42.478,151.544 46.933 L 151.719 55.033 153.428 54.933 L 155.138 54.833 155.058 47.000 C 154.973 38.773,154.861 37.216,154.159 34.500 C 153.243 30.960,153.238 30.958,152.022 33.454 M353.806 36.202 C 354.845 36.601,354.306 38.667,353.163 38.667 C 352.924 38.667,352.000 37.607,352.000 37.333 C 352.000 37.059,352.924 36.000,353.163 36.000 C 353.227 36.000,353.516 36.091,353.806 36.202 M60.708 40.978 C 59.805 43.078,59.818 43.333,60.833 43.333 C 61.630 43.333,61.667 43.244,61.667 41.333 C 61.667 38.911,61.607 38.889,60.708 40.978 M148.395 42.083 C 147.302 44.831,147.301 44.838,147.400 50.000 L 147.500 55.167 148.833 55.167 L 150.167 55.167 150.275 52.000 C 150.407 48.132,150.014 39.333,149.710 39.333 C 149.588 39.333,148.996 40.571,148.395 42.083 M105.333 40.980 C 105.333 41.336,105.200 41.710,105.038 41.810 C 104.875 41.910,104.640 42.538,104.515 43.204 C 104.390 43.870,104.168 44.659,104.022 44.958 C 102.965 47.114,102.964 47.998,104.001 64.167 C 104.189 67.100,104.341 70.446,104.338 71.603 C 104.331 74.624,105.562 82.373,106.333 84.167 C 106.491 84.533,106.792 85.394,107.001 86.079 C 107.211 86.764,107.546 87.425,107.746 87.549 C 108.332 87.911,109.754 86.019,109.509 85.201 C 109.243 84.314,108.425 80.961,107.995 79.000 C 107.205 75.395,106.357 62.474,106.109 50.250 C 105.999 44.796,105.779 40.333,105.621 40.333 C 105.463 40.333,105.333 40.624,105.333 40.980 M263.667 47.861 C 263.667 48.696,260.110 51.667,259.110 51.667 C 257.751 51.667,257.751 51.686,259.078 49.469 L 260.156 47.667 261.911 47.667 C 262.877 47.667,263.667 47.754,263.667 47.861 M61.614 48.248 C 58.167 48.364,57.839 48.537,57.192 50.583 L 56.955 51.333 61.924 51.333 C 64.657 51.333,69.833 51.235,73.428 51.114 L 79.962 50.896 80.283 50.031 C 81.111 47.802,81.826 47.993,72.906 48.070 C 68.466 48.108,63.385 48.188,61.614 48.248 M100.858 52.769 C 100.505 53.905,99.869 55.907,99.444 57.219 C 98.782 59.265,98.719 59.853,99.003 61.348 C 99.185 62.307,99.333 63.933,99.332 64.962 C 99.325 74.028,101.701 87.525,103.562 88.989 C 105.680 90.655,107.219 90.139,106.003 88.171 C 103.981 84.900,102.509 73.575,102.124 58.333 C 101.923 50.373,101.788 49.780,100.858 52.769 M275.738 53.328 C 276.134 53.698,276.565 54.000,276.694 54.000 C 277.445 54.000,277.221 55.163,276.291 56.094 L 275.249 57.135 274.669 56.418 C 273.893 55.460,272.571 55.145,272.035 55.791 C 271.486 56.453,271.942 57.286,273.538 58.535 C 276.255 60.661,276.710 61.126,277.179 62.247 C 278.936 66.453,274.946 70.030,270.755 68.005 C 268.842 67.080,267.191 64.667,268.472 64.667 C 268.732 64.667,268.994 64.528,269.056 64.358 C 269.374 63.474,270.841 63.661,271.401 64.657 C 272.025 65.767,273.102 65.987,274.152 65.219 C 275.088 64.535,274.586 63.302,272.762 61.803 C 268.365 58.187,267.548 55.877,269.852 53.572 C 271.258 52.167,274.353 52.038,275.738 53.328 M290.766 53.099 C 291.156 53.319,291.678 53.688,291.928 53.917 C 292.177 54.146,292.483 54.334,292.607 54.334 C 294.808 54.340,296.087 62.960,294.172 64.876 C 293.902 65.145,293.566 65.555,293.424 65.785 C 292.944 66.566,290.774 68.000,290.072 68.000 C 289.687 68.000,289.280 68.150,289.167 68.333 C 288.914 68.742,285.776 68.779,285.527 68.376 C 285.428 68.217,284.894 67.995,284.340 67.885 C 281.688 67.354,278.960 62.553,279.530 59.421 C 280.498 54.102,286.539 50.703,290.766 53.099 M373.438 53.378 C 375.062 54.433,375.208 54.966,374.128 55.895 C 373.028 56.840,372.880 56.845,371.691 55.965 C 371.062 55.501,370.505 55.340,370.038 55.488 C 368.874 55.857,369.185 57.039,370.760 58.229 C 375.318 61.671,376.431 64.487,374.205 66.946 C 372.951 68.331,369.716 69.222,369.167 68.333 C 369.053 68.150,368.685 68.000,368.348 68.000 C 367.670 68.000,365.667 65.903,365.667 65.193 C 365.667 64.945,366.217 64.481,366.890 64.162 L 368.114 63.581 368.974 64.627 C 369.878 65.727,371.189 66.011,371.933 65.267 C 372.880 64.320,372.463 63.670,368.881 60.508 C 363.808 56.030,367.831 49.734,373.438 53.378 M61.480 52.916 L 56.126 53.016 55.524 54.691 C 54.746 56.853,53.725 56.683,65.571 56.362 C 71.276 56.208,76.318 56.153,76.776 56.241 C 77.734 56.424,78.520 55.483,78.870 53.733 L 79.083 52.667 72.958 52.741 C 69.590 52.782,64.424 52.861,61.480 52.916 M196.748 53.833 C 197.067 54.895,197.279 55.439,198.133 57.384 C 198.426 58.053,198.667 58.768,198.667 58.972 C 198.667 59.176,198.817 59.640,199.000 60.005 C 199.183 60.369,199.483 60.965,199.667 61.329 C 199.850 61.693,200.000 62.158,200.000 62.362 C 200.000 62.566,200.225 63.243,200.500 63.866 C 200.775 64.490,201.225 65.510,201.500 66.134 C 202.254 67.844,202.161 68.000,200.387 68.000 C 198.797 68.000,198.767 67.980,198.328 66.650 C 197.758 64.924,197.785 64.937,194.612 64.937 C 191.641 64.937,191.512 65.000,191.090 66.667 C 190.804 67.793,190.734 67.837,189.064 67.934 C 187.060 68.051,187.040 67.995,188.167 65.531 C 188.625 64.529,189.000 63.548,189.000 63.350 C 189.000 63.153,189.137 62.730,189.305 62.412 C 189.918 61.250,190.667 59.390,190.667 59.028 C 190.667 58.824,190.799 58.397,190.961 58.079 C 191.357 57.301,191.815 56.155,192.499 54.234 L 193.068 52.634 194.758 52.734 C 196.312 52.825,196.472 52.914,196.748 53.833 M211.289 53.184 C 213.646 53.955,214.389 54.719,216.048 58.079 C 216.445 58.883,216.407 62.915,216.000 63.167 C 215.817 63.280,215.667 63.630,215.667 63.944 C 215.667 66.376,212.468 68.000,207.677 68.000 L 204.000 68.000 204.000 60.556 C 204.000 56.461,204.100 53.011,204.222 52.889 C 204.653 52.458,209.718 52.670,211.289 53.184 M225.713 58.667 C 225.613 66.603,225.463 67.236,223.439 68.288 C 221.940 69.067,219.505 68.442,218.069 66.909 L 217.305 66.094 218.483 65.059 L 219.661 64.025 220.482 64.846 C 222.295 66.659,222.606 65.739,222.406 59.153 C 222.206 52.548,222.192 52.599,224.223 52.732 L 225.787 52.833 225.713 58.667 M239.551 53.583 C 239.761 54.087,240.185 55.400,240.494 56.500 C 240.803 57.600,241.190 58.756,241.355 59.069 C 241.519 59.382,241.751 60.244,241.870 60.985 C 242.094 62.388,243.335 63.037,243.332 61.750 C 243.330 61.161,244.201 58.266,244.665 57.322 C 244.802 57.041,245.022 56.291,245.152 55.656 C 245.672 53.123,246.040 52.667,247.562 52.667 C 249.380 52.667,249.401 52.711,249.887 57.667 C 249.969 58.492,250.164 59.467,250.321 59.833 C 250.479 60.200,250.766 61.775,250.959 63.333 C 251.153 64.892,251.409 66.579,251.528 67.083 C 251.742 67.990,251.727 68.000,250.070 68.000 L 248.395 68.000 248.217 66.250 C 247.820 62.345,247.394 59.927,247.040 59.574 C 246.764 59.298,246.667 59.374,246.667 59.867 C 246.667 60.233,246.542 60.676,246.390 60.850 C 246.237 61.024,245.848 62.142,245.525 63.333 C 245.202 64.525,244.801 65.760,244.635 66.079 C 244.469 66.397,244.333 66.960,244.333 67.329 C 244.333 68.767,241.184 68.260,240.736 66.750 C 238.114 57.906,238.002 57.883,237.049 66.000 L 236.833 67.833 235.250 67.935 C 233.403 68.053,233.353 67.895,234.173 64.500 C 234.439 63.400,234.659 61.968,234.661 61.317 C 234.664 60.666,234.803 59.991,234.969 59.817 C 235.136 59.642,235.348 58.750,235.442 57.833 C 235.976 52.588,235.941 52.667,237.772 52.667 C 238.983 52.667,239.222 52.789,239.551 53.583 M261.585 53.083 C 261.768 53.313,262.021 53.875,262.147 54.333 C 262.386 55.207,262.875 56.434,263.372 57.412 C 263.534 57.730,263.667 58.158,263.667 58.362 C 263.667 58.707,264.381 60.503,264.986 61.678 C 265.130 61.959,265.354 62.668,265.482 63.254 C 265.611 63.839,266.080 65.034,266.523 65.909 C 267.586 68.004,267.588 68.000,265.723 68.000 C 264.031 68.000,263.973 67.949,263.104 65.699 C 262.811 64.941,262.633 64.895,259.857 64.855 C 256.655 64.809,256.672 64.799,256.183 67.083 C 256.001 67.934,255.868 68.000,254.327 68.000 C 252.421 68.000,252.337 67.807,253.342 65.727 C 253.714 64.958,254.107 63.880,254.217 63.331 C 254.327 62.782,254.548 62.333,254.708 62.333 C 254.869 62.333,255.000 62.031,255.000 61.662 C 255.000 61.293,255.135 60.730,255.299 60.412 C 255.560 59.907,255.904 59.048,257.000 56.167 C 258.316 52.706,258.348 52.667,259.843 52.667 C 260.618 52.667,261.402 52.854,261.585 53.083 M301.049 55.083 C 300.978 56.452,301.063 57.333,301.268 57.333 C 301.584 57.333,304.000 54.217,304.000 53.809 C 304.000 53.134,305.149 52.667,306.810 52.667 C 307.831 52.667,308.667 52.752,308.667 52.856 C 308.667 53.099,307.030 55.288,306.167 56.199 C 305.537 56.863,304.764 57.774,303.698 59.108 C 303.234 59.687,303.536 60.352,305.089 62.167 C 305.246 62.350,306.265 63.700,307.354 65.167 L 309.334 67.833 307.472 67.934 C 305.340 68.050,305.042 67.870,303.794 65.722 C 303.297 64.866,302.792 64.092,302.671 64.000 C 302.550 63.908,302.358 63.581,302.245 63.272 C 302.131 62.963,301.707 62.533,301.303 62.317 C 300.543 61.910,300.495 64.066,301.198 67.083 C 301.410 67.996,301.403 68.000,299.622 68.000 L 297.833 68.000 297.892 60.417 C 297.925 56.246,297.962 52.788,297.976 52.732 C 297.989 52.676,298.712 52.676,299.583 52.732 L 301.167 52.833 301.049 55.083 M314.787 54.145 C 315.179 54.866,315.762 55.757,316.083 56.124 C 316.404 56.492,316.667 56.903,316.667 57.039 C 316.667 57.175,316.855 57.484,317.084 57.726 C 317.314 57.968,317.801 58.736,318.167 59.432 C 318.534 60.128,319.165 61.103,319.571 61.598 L 320.309 62.500 320.321 57.583 L 320.333 52.667 321.833 52.667 L 323.333 52.667 323.333 60.333 L 323.333 68.000 321.678 68.000 C 320.301 68.000,319.957 67.874,319.628 67.250 C 319.411 66.837,319.143 66.425,319.033 66.333 C 318.705 66.059,317.995 64.875,317.785 64.250 C 317.677 63.929,317.456 63.667,317.294 63.667 C 317.133 63.667,317.000 63.511,317.000 63.321 C 317.000 63.130,316.409 62.045,315.686 60.909 C 314.020 58.287,313.826 58.672,314.115 64.036 L 314.328 68.000 312.581 68.000 L 310.833 68.000 310.889 60.583 C 310.920 56.504,310.958 53.046,310.973 52.898 C 311.074 51.903,314.106 52.894,314.787 54.145 M334.814 54.250 C 334.987 55.029,335.249 55.667,335.397 55.667 C 335.545 55.667,335.667 55.958,335.667 56.314 C 335.667 56.670,335.817 57.053,336.000 57.167 C 336.183 57.280,336.333 57.604,336.333 57.886 C 336.333 58.367,337.002 60.100,337.695 61.412 C 337.863 61.730,338.000 62.158,338.000 62.362 C 338.000 62.566,338.240 63.280,338.534 63.950 C 338.828 64.619,339.220 65.542,339.406 66.000 C 339.592 66.458,339.878 67.096,340.042 67.417 C 340.307 67.937,340.144 68.000,338.538 68.000 C 336.707 68.000,336.333 67.732,336.333 66.416 C 336.333 65.122,335.521 64.825,332.451 65.000 L 329.519 65.167 329.147 66.500 C 328.781 67.815,328.753 67.835,327.055 67.934 C 325.077 68.050,324.961 67.821,325.963 65.782 C 326.513 64.662,326.922 63.668,328.000 60.833 C 328.224 60.245,328.886 58.528,329.671 56.500 C 329.813 56.133,330.186 55.114,330.499 54.234 L 331.068 52.634 332.784 52.734 L 334.500 52.833 334.814 54.250 M345.333 55.052 C 345.333 57.840,345.653 57.763,347.856 54.444 L 349.036 52.667 350.851 52.667 C 353.041 52.667,353.119 52.977,351.408 54.879 C 350.725 55.637,349.942 56.539,349.667 56.883 C 349.392 57.227,348.754 58.006,348.249 58.614 L 347.332 59.719 348.583 61.276 C 349.271 62.133,349.946 62.883,350.083 62.944 C 350.221 63.006,350.333 63.268,350.333 63.528 C 350.333 63.788,350.449 64.000,350.591 64.000 C 350.733 64.000,351.131 64.525,351.477 65.167 C 351.822 65.808,352.207 66.333,352.332 66.333 C 352.457 66.333,352.731 66.708,352.939 67.167 L 353.319 68.000 351.319 68.000 C 349.509 68.000,349.283 67.921,348.939 67.167 C 348.731 66.708,348.434 66.333,348.280 66.333 C 348.126 66.333,348.000 66.190,348.000 66.015 C 348.000 65.840,347.400 64.840,346.667 63.793 L 345.333 61.889 345.333 64.945 L 345.333 68.000 343.667 68.000 L 342.000 68.000 342.000 60.333 L 342.000 52.667 343.667 52.667 L 345.333 52.667 345.333 55.052 M363.923 60.417 L 364.013 68.000 362.423 68.000 L 360.833 68.000 360.892 60.417 C 360.925 56.246,360.962 52.787,360.976 52.731 C 360.989 52.674,361.637 52.674,362.417 52.731 L 363.833 52.833 363.923 60.417 M286.225 55.592 C 282.809 56.040,281.359 61.359,283.948 63.948 C 287.149 67.149,292.333 65.046,292.333 60.547 C 292.333 57.235,289.740 55.131,286.225 55.592 M207.308 55.917 C 207.294 56.054,207.263 58.192,207.238 60.667 L 207.194 65.167 208.352 65.265 C 213.511 65.705,215.163 58.138,210.331 56.205 C 208.921 55.641,207.351 55.491,207.308 55.917 M193.988 58.772 C 193.748 59.539,193.427 60.309,193.275 60.483 C 192.465 61.416,192.993 62.000,194.647 62.000 C 196.659 62.000,196.774 61.843,195.969 60.189 C 195.620 59.469,195.333 58.747,195.333 58.583 C 195.333 57.352,194.392 57.484,193.988 58.772 M259.368 58.446 C 259.129 59.026,258.723 59.973,258.466 60.550 C 257.814 62.019,257.796 62.000,259.840 62.000 C 261.710 62.000,262.151 61.152,260.957 59.850 C 260.797 59.676,260.662 59.301,260.656 59.017 C 260.629 57.704,259.822 57.347,259.368 58.446 M331.995 58.750 C 331.751 59.529,331.427 60.309,331.275 60.483 C 330.472 61.408,330.993 62.000,332.611 62.000 C 334.434 62.000,334.746 61.829,334.350 61.047 C 334.198 60.746,333.733 59.788,333.317 58.917 C 332.409 57.013,332.536 57.029,331.995 58.750 M67.500 58.039 C 62.550 58.153,57.508 58.265,56.295 58.289 L 54.091 58.333 53.510 59.854 C 52.775 61.778,51.439 61.616,64.621 61.197 L 76.076 60.833 76.582 59.561 C 77.292 57.779,77.481 57.811,67.500 58.039 M15.323 60.179 C 14.627 61.018,15.346 76.681,16.279 81.000 C 17.010 84.384,18.276 87.719,18.999 88.166 C 19.377 88.400,20.637 87.091,20.656 86.444 C 20.662 86.231,20.854 85.993,21.083 85.916 C 21.407 85.807,21.414 85.596,21.114 84.971 C 19.521 81.657,18.698 75.428,18.671 66.500 C 18.665 64.667,18.566 62.379,18.451 61.417 L 18.240 59.667 16.994 59.667 C 16.281 59.667,15.567 59.885,15.323 60.179 M20.111 60.067 C 19.643 60.680,20.424 79.084,20.993 80.833 C 21.778 83.251,22.062 83.697,22.554 83.288 C 22.799 83.085,23.001 82.749,23.001 82.543 C 23.002 82.336,23.381 81.420,23.844 80.508 C 24.549 79.118,24.626 78.707,24.318 77.963 C 24.106 77.452,23.855 73.428,23.725 68.455 L 23.500 59.833 21.971 59.734 C 21.005 59.671,20.320 59.794,20.111 60.067 M24.782 60.181 C 24.528 60.843,24.917 71.883,25.286 74.500 C 25.442 75.600,25.591 76.237,25.618 75.917 C 25.645 75.596,25.792 75.333,25.944 75.333 C 26.097 75.333,26.509 74.433,26.861 73.333 C 27.212 72.233,27.612 71.333,27.750 71.333 C 27.887 71.333,28.000 68.708,28.000 65.500 L 28.000 59.667 26.490 59.667 C 25.436 59.667,24.919 59.822,24.782 60.181 M10.877 60.243 L 9.921 60.385 10.145 64.609 C 10.768 76.354,10.934 78.695,11.309 81.000 C 11.532 82.375,11.836 83.800,11.984 84.167 C 12.132 84.533,12.524 85.508,12.855 86.333 C 13.592 88.170,14.418 89.139,15.810 89.800 C 17.643 90.670,19.072 89.786,17.833 88.548 C 17.558 88.273,17.333 87.887,17.333 87.690 C 17.333 87.494,17.183 87.333,17.000 87.333 C 16.817 87.333,16.667 87.033,16.667 86.667 C 16.667 86.300,16.529 86.000,16.360 86.000 C 16.192 86.000,15.906 85.362,15.725 84.583 C 15.544 83.804,15.153 82.284,14.857 81.205 C 14.314 79.226,13.514 62.118,13.917 61.070 C 14.261 60.173,13.227 59.892,10.877 60.243 M65.000 63.012 C 63.808 63.146,60.431 63.273,57.495 63.294 L 52.157 63.333 51.579 64.669 C 51.260 65.404,51.000 66.154,51.000 66.336 C 51.000 66.716,64.473 66.795,70.141 66.448 C 74.077 66.207,74.414 66.013,74.870 63.733 L 75.083 62.667 71.125 62.717 C 68.948 62.745,66.192 62.878,65.000 63.012 M55.172 71.992 C 54.927 72.389,55.220 76.656,55.711 79.833 C 56.543 85.221,57.779 88.266,59.648 89.536 C 61.625 90.880,63.248 90.437,62.202 88.840 C 59.987 85.460,59.014 82.037,58.573 76.083 L 58.247 71.667 56.810 71.667 C 56.019 71.667,55.282 71.813,55.172 71.992 M60.145 75.563 C 60.418 80.067,61.601 85.158,62.878 87.319 C 63.642 88.613,63.725 88.600,64.829 87.006 C 65.745 85.684,65.746 85.674,65.165 84.449 C 64.216 82.449,63.610 79.408,63.381 75.500 L 63.167 71.833 61.537 71.730 L 59.907 71.626 60.145 75.563 M64.830 73.583 C 64.914 74.637,65.055 76.505,65.144 77.734 C 65.310 80.037,66.207 83.671,66.607 83.662 C 67.420 83.644,69.005 79.022,68.678 77.622 C 68.490 76.822,68.249 75.154,68.142 73.917 L 67.947 71.667 66.312 71.667 L 64.677 71.667 64.830 73.583 M69.453 72.917 C 69.566 73.604,69.661 74.579,69.663 75.083 C 69.670 76.869,70.422 75.993,71.523 72.917 L 71.970 71.667 70.608 71.667 L 69.246 71.667 69.453 72.917 M287.000 73.855 C 287.000 74.577,283.211 77.667,282.326 77.667 C 281.091 77.667,281.093 77.596,282.404 75.433 L 283.474 73.667 285.237 73.667 C 286.207 73.667,287.000 73.751,287.000 73.855 M291.667 73.818 C 291.667 74.560,287.923 77.667,287.029 77.667 C 285.764 77.667,285.764 77.660,287.024 75.457 L 288.049 73.667 289.858 73.667 C 290.853 73.667,291.667 73.735,291.667 73.818 M317.925 83.742 L 318.016 89.317 317.175 89.528 C 314.877 90.104,314.796 89.919,314.732 83.943 C 314.667 77.997,314.689 77.932,316.667 78.080 L 317.833 78.167 317.925 83.742 M250.870 79.152 C 253.410 80.419,254.044 82.425,252.650 84.787 L 251.967 85.945 252.673 86.169 C 254.264 86.674,255.095 89.335,254.254 91.234 C 253.259 93.481,251.976 94.043,248.105 93.929 L 244.890 93.833 244.918 86.417 C 244.933 82.337,244.958 78.925,244.973 78.833 C 245.038 78.434,249.965 78.700,250.870 79.152 M265.667 80.167 L 265.667 81.667 262.833 81.667 L 260.000 81.667 260.000 83.000 L 260.000 84.333 262.833 84.333 L 265.667 84.333 265.667 85.870 L 265.667 87.407 262.917 87.287 L 260.167 87.167 260.067 89.083 L 259.967 91.000 262.817 91.000 L 265.667 91.000 265.667 92.500 L 265.667 94.000 261.333 94.000 L 257.000 94.000 257.000 86.333 L 257.000 78.667 261.333 78.667 L 265.667 78.667 265.667 80.167 M271.043 84.917 L 270.920 91.000 273.127 91.000 L 275.333 91.000 275.333 92.500 L 275.333 94.000 271.667 94.000 L 268.000 94.000 268.000 86.315 L 268.000 78.630 269.583 78.732 L 271.167 78.833 271.043 84.917 M287.899 79.166 C 294.149 82.284,293.456 92.797,286.912 94.148 C 284.426 94.662,283.260 94.726,282.904 94.371 C 282.700 94.167,282.240 94.000,281.881 94.000 C 280.771 94.000,277.704 91.385,277.678 90.417 C 277.672 90.188,277.517 90.000,277.333 90.000 C 277.150 90.000,277.000 89.634,277.000 89.186 C 277.000 88.739,276.850 88.280,276.667 88.167 C 275.812 87.638,276.460 84.421,277.948 81.811 C 279.503 79.084,284.872 77.656,287.899 79.166 M298.000 84.833 L 298.000 91.000 300.167 91.000 L 302.333 91.000 302.333 92.500 L 302.333 94.000 298.667 94.000 L 295.000 94.000 295.000 86.333 L 295.000 78.667 296.500 78.667 L 298.000 78.667 298.000 84.833 M312.667 80.167 L 312.667 81.667 310.006 81.667 C 307.447 81.667,307.338 81.698,307.137 82.499 C 306.734 84.107,307.086 84.333,309.990 84.333 L 312.667 84.333 312.667 85.863 L 312.667 87.392 310.250 87.327 C 308.921 87.291,307.678 87.278,307.488 87.298 C 307.296 87.317,307.143 88.147,307.143 89.167 L 307.143 91.000 309.905 91.000 L 312.667 91.000 312.667 92.500 L 312.667 94.000 308.333 94.000 L 304.000 94.000 304.000 86.333 L 304.000 78.667 308.333 78.667 L 312.667 78.667 312.667 80.167 M282.873 81.671 C 281.487 82.096,280.438 83.210,279.879 84.850 C 278.556 88.734,282.050 92.378,285.869 91.096 C 292.066 89.016,289.122 79.752,282.873 81.671 M247.667 83.177 C 247.667 84.996,248.300 85.403,249.609 84.427 C 251.264 83.193,250.812 81.667,248.793 81.667 C 247.679 81.667,247.667 81.684,247.667 83.177 M247.667 89.167 L 247.667 91.000 249.143 91.000 C 251.298 91.000,252.030 90.163,251.293 88.544 C 250.318 86.404,247.667 86.860,247.667 89.167 M317.808 91.306 C 319.120 92.755,317.352 94.904,315.531 94.075 C 314.578 93.641,314.299 91.834,315.067 91.067 C 315.674 90.459,317.159 90.588,317.808 91.306 " stroke="none" fill="#000000" fill-rule="evenodd"></path></g></svg>