<svg width="216" height="216" viewBox="0 0 216 216" fill="none" xmlns="http://www.w3.org/2000/svg">
<path d="M170.016 45.9843C161.88 37.8257 152.214 31.3526 141.572 26.936C130.931 22.5193 119.522 20.2458 108 20.2458C96.4781 20.2458 85.0694 22.5193 74.4277 26.936C63.7859 31.3526 54.1202 37.8257 45.9844 45.9843C37.8258 54.1201 31.3528 63.7858 26.9361 74.4276C22.5194 85.0693 20.246 96.478 20.246 108C20.246 119.522 22.5194 130.93 26.9361 141.572C31.3528 152.214 37.8258 161.88 45.9844 170.016C54.1202 178.174 63.7859 184.647 74.4277 189.064C85.0694 193.48 96.4781 195.754 108 195.754C119.522 195.754 130.931 193.48 141.572 189.064C152.214 184.647 161.88 178.174 170.016 170.016C178.174 161.88 184.647 152.214 189.064 141.572C193.481 130.93 195.754 119.522 195.754 108C195.754 96.478 193.481 85.0693 189.064 74.4276C184.647 63.7858 178.174 54.1201 170.016 45.9843ZM81 177.187V128.25H135V177.187C117.633 183.94 98.3667 183.94 81 177.187ZM121.5 114.75H94.5V85.1343L121.5 71.6343V114.75ZM160.481 160.481C156.844 164.157 152.828 167.438 148.5 170.269V128.25C148.5 124.669 147.078 121.236 144.546 118.704C142.014 116.172 138.58 114.75 135 114.75V60.7499C135.007 59.598 134.715 58.464 134.153 57.4585C133.591 56.4529 132.778 55.6102 131.794 55.0124C130.817 54.3984 129.699 54.045 128.547 53.9859C127.395 53.9268 126.247 54.164 125.212 54.6749L84.7125 74.9249C83.6012 75.506 82.6688 76.3782 82.0149 77.4482C81.361 78.5182 81.0102 79.7459 81 80.9999V114.75C77.4196 114.75 73.9858 116.172 71.4541 118.704C68.9223 121.236 67.5 124.669 67.5 128.25V170.269C57.1703 163.483 48.6819 154.245 42.7927 143.379C36.9034 132.514 33.7967 120.359 33.75 108C33.743 95.7863 36.7489 83.7596 42.5015 72.9856C48.254 62.2115 56.5755 53.0229 66.7285 46.2341C76.8815 39.4452 88.5524 35.2658 100.707 34.0661C112.861 32.8664 125.124 34.6836 136.408 39.3566C147.693 44.0296 157.65 51.414 165.398 60.8556C173.146 70.2971 178.445 81.5041 180.826 93.4834C183.206 105.463 182.595 117.844 179.047 129.531C175.498 141.218 169.121 151.848 160.481 160.481Z" fill="white"/>
</svg>
