<svg width="591" height="591" viewBox="0 0 591 591" fill="none" xmlns="http://www.w3.org/2000/svg">
<path d="M457.452 18.4688H133.548C100.645 18.4688 73.875 45.6547 73.875 79.074V511.935C73.875 545.345 100.645 572.531 133.548 572.531H457.452C490.355 572.531 517.125 545.345 517.125 511.935V79.074C517.125 45.6547 490.355 18.4688 457.452 18.4688ZM491.546 511.935C491.546 531.05 476.291 546.564 457.452 546.564H133.548C114.709 546.564 99.4542 531.05 99.4542 511.935V79.074C99.4542 59.9403 114.709 44.445 133.548 44.445H457.452C476.291 44.445 491.546 59.9403 491.546 79.074V511.935Z" fill="white"/>
<path d="M320.488 365.598C319.288 366.355 317.94 367.186 316.48 367.999C313.354 369.791 310.045 371.243 306.609 372.33C304.808 372.884 302.971 373.29 301.105 373.558C300.634 373.604 300.173 373.706 299.711 373.752C299.24 373.77 298.732 373.863 298.316 373.881L297.698 373.918L297.412 373.937H297.236L297.005 373.955L295.408 373.992C291.409 373.992 287.632 373.456 284.059 372.422C280.63 371.396 277.335 369.967 274.242 368.165C271.802 366.783 269.446 365.257 267.187 363.594C265.451 362.329 264.436 361.526 264.436 361.526C264.436 361.526 264.399 361.83 264.436 362.394C264.491 362.975 264.583 363.816 264.805 364.85C265.267 366.955 266.273 369.901 268.462 373.115C269.524 374.722 270.909 376.365 272.599 377.981C274.335 379.551 276.376 381.066 278.73 382.368C281.113 383.633 283.791 384.704 286.617 385.378C289.461 386.061 292.406 386.431 295.371 386.449H295.694L295.814 386.431H296.488L297.412 386.385H297.652L297.947 386.348L298.557 386.301L299.766 386.163C306.617 385.452 313.051 382.532 318.097 377.843C319.777 376.254 321.162 374.592 322.243 373.013C323.323 371.443 324.117 369.901 324.736 368.507C325.336 367.14 325.743 365.875 326.01 364.85C326.509 362.772 326.472 361.535 326.472 361.535C326.472 361.535 325.429 362.311 323.628 363.502C322.6 364.228 321.553 364.927 320.488 365.598ZM273.744 309.194C273.734 307.886 273.398 306.6 272.765 305.455C272.885 305.501 272.959 305.547 273.079 305.584C273.55 305.713 273.947 305.916 274.363 306.092C274.797 306.258 275.212 306.415 275.591 306.618C276.394 306.96 277.17 307.283 277.807 307.643C278.49 307.929 279.109 308.225 279.571 308.456C280.079 308.687 280.513 308.871 280.78 309.028L281.205 309.213C281.205 309.213 281.168 309.056 281.057 308.797C280.965 308.53 280.836 308.123 280.605 307.652C280.358 307.046 280.048 306.468 279.682 305.925C279.475 305.579 279.256 305.24 279.026 304.91C278.767 304.577 278.463 304.226 278.167 303.866C277.872 303.488 277.521 303.146 277.142 302.767C276.754 302.389 276.357 302.001 275.886 301.65C275.443 301.327 274.981 300.939 274.427 300.606C273.89 300.273 273.345 299.953 272.793 299.646C271.525 299.034 270.193 298.563 268.822 298.242C268.48 298.187 268.12 298.104 267.76 298.03C267.4 297.984 267.03 297.928 266.652 297.901C265.913 297.781 265.156 297.818 264.399 297.799C262.936 297.851 261.483 298.065 260.068 298.436C257.578 299.118 255.242 300.272 253.188 301.835C252.292 302.546 251.526 303.248 250.898 303.94C249.587 305.353 248.774 306.701 248.275 307.652C248.084 308.022 247.921 308.404 247.786 308.797C247.719 308.93 247.667 309.069 247.629 309.213L249.263 308.511C250.298 308.068 251.701 307.458 253.308 306.784C254.148 306.48 254.989 306.138 255.894 305.824C255.373 306.875 255.102 308.031 255.1 309.204C255.1 313.849 259.264 317.635 264.426 317.635C269.561 317.625 273.744 313.839 273.744 309.194ZM342.641 307.634C342.405 307.032 342.111 306.453 341.764 305.907C341.548 305.561 341.32 305.222 341.081 304.891C340.832 304.559 340.527 304.208 340.231 303.848C339.927 303.469 339.566 303.127 339.216 302.749C338.818 302.37 338.431 301.982 337.941 301.631C337.498 301.308 337.045 300.92 336.501 300.588C335.959 300.257 335.411 299.936 334.857 299.628C333.592 299.022 332.268 298.552 330.905 298.224C330.554 298.169 330.203 298.085 329.824 298.012C329.455 297.965 329.104 297.91 328.707 297.882C327.959 297.762 327.229 297.799 326.472 297.781C321.334 297.962 316.477 300.169 312.962 303.922C311.921 305.034 311.036 306.283 310.33 307.634C310.1 308.105 309.943 308.502 309.823 308.779C309.739 309.028 309.702 309.194 309.702 309.194L311.318 308.493C312.353 308.049 313.756 307.44 315.391 306.766C316.203 306.461 317.071 306.119 317.958 305.805C317.445 306.858 317.176 308.014 317.173 309.185C317.173 313.83 321.338 317.616 326.463 317.616C331.616 317.616 335.771 313.83 335.771 309.185C335.769 307.88 335.446 306.596 334.829 305.445L335.115 305.575C335.586 305.704 335.993 305.907 336.427 306.082C336.833 306.249 337.267 306.406 337.636 306.609C338.44 306.95 339.206 307.274 339.853 307.634C340.518 307.92 341.155 308.216 341.607 308.446C342.097 308.677 342.549 308.862 342.798 309.019L343.242 309.204C343.242 309.204 343.205 309.047 343.103 308.788C342.997 308.386 342.842 307.998 342.641 307.634Z" fill="white"/>
<path d="M458.57 165.544C454.267 165.544 450.379 167.059 447.442 169.469C439.935 162.506 429.445 153.771 418.566 147.861C381.703 127.887 351.71 145.644 329.88 171.085C322.247 154.392 313.449 138.257 303.552 122.799C308.511 120.213 311.882 115.43 311.882 109.889C311.882 101.624 304.485 94.9385 295.325 94.9385C286.192 94.9385 278.777 101.624 278.777 109.889C278.777 115.328 282.018 120.037 286.829 122.651C277.001 137.995 268.25 154.002 260.64 170.559C238.856 145.404 209.029 128.044 172.424 147.87C161.472 153.808 150.954 162.599 143.438 169.589C140.322 167.08 136.439 165.717 132.439 165.729C123.279 165.729 115.854 172.415 115.854 180.698C115.854 188.963 123.279 195.649 132.439 195.649C141.572 195.649 148.987 188.954 148.987 180.698L148.969 180.569C172.212 182.425 213 193.395 225.088 245.662C219.547 261.961 208.909 311.54 249.384 384.565C251.027 387.52 252.634 390.198 254.232 392.858L195.861 496.061L269.699 432.593L262.109 496.061L295.731 429.361L328.587 496.061L321.689 432.492L394.806 496.061L336.981 392.359C338.477 389.857 339.991 387.345 341.524 384.565C381.795 311.845 371.425 262.358 365.894 245.856C377.381 192.056 418.613 181.64 442.031 180.227C442.022 180.319 441.994 180.412 441.994 180.504C441.994 188.769 449.419 195.464 458.579 195.464C467.721 195.464 475.146 188.769 475.146 180.504C475.136 172.23 467.712 165.544 458.57 165.544ZM330.387 378.194C313.369 408.889 302.019 415.657 295.445 415.87C288.888 415.657 277.548 408.889 260.52 378.194C233.002 328.513 230.85 290.559 233.427 268.231C239.253 260.003 248.839 251.267 263.475 251.267C291.012 251.267 295.445 282.415 295.445 282.415C295.445 282.415 299.859 251.267 327.451 251.267C342.069 251.267 351.663 260.021 357.463 268.249C360.048 290.596 357.878 328.531 330.387 378.194Z" fill="white"/>
</svg>
