<svg width="536" height="389" viewBox="0 0 536 389" fill="none" xmlns="http://www.w3.org/2000/svg">
<g clip-path="url(#clip0_128_107)">
<path d="M312.219 68.5762C322.265 68.5762 330.408 60.45 330.408 50.426C330.408 40.4019 322.265 32.2758 312.219 32.2758C302.174 32.2758 294.03 40.4019 294.03 50.426C294.03 60.45 302.174 68.5762 312.219 68.5762Z" fill="#F2F2F2"/>
<path d="M453.318 337.946C480.354 317.397 493.268 282.868 485.183 249.928C484.983 249.11 484.77 248.293 484.547 247.479C479.188 227.926 465.928 209.343 446.603 203.096C430.377 197.85 412.665 201.884 395.737 199.798C362.506 195.703 336.742 168.873 318.615 140.782C300.487 112.69 286.555 81.2456 262.467 58.0379C222.762 19.7839 157.993 11.5478 108.765 36.4483C59.5367 61.3488 28.1787 116.593 29.516 171.65C30.8534 226.708 63.6087 279.346 111.178 307.274C128.652 317.534 148.864 324.802 168.978 322.259C186.431 320.052 202.289 310.694 219.66 307.916C246.971 303.548 274.108 315.87 297.73 330.229C321.352 344.587 344.169 361.606 371.012 368.263C397.077 374.727 429.368 356.148 453.318 337.946Z" fill="#F2F2F2"/>
<path d="M414.474 37.6045C413.881 37.2103 413.282 36.8364 412.689 36.4557C395.557 25.5222 377.194 16.64 357.98 9.99252L353.525 71.3208H325.281V1.04004C323.503 0.672965 321.712 0.326287 319.92 0V71.3208H286.356C267.879 71.3208 250.158 63.9965 237.093 50.9591C224.028 37.9217 216.688 20.2391 216.688 1.80145V1.80139C214.889 2.18886 213.104 2.60351 211.319 3.04536V71.3208H183.982L179.738 12.8407C159.992 20.3972 141.247 30.3343 123.919 42.4309C123.619 42.6348 123.319 42.8455 123.026 43.0494C121.521 44.1031 120.036 45.1771 118.557 46.2647V280.233H199.126L197.702 260.553L189.868 152.505H347.632L339.798 260.553L338.374 280.233H418.05V39.9701C416.865 39.168 415.673 38.3795 414.474 37.6045ZM211.32 134.661H188.573L184.37 76.6773H211.32V134.661ZM319.92 134.661H281.717V133.512C281.717 132.96 281.608 132.413 281.396 131.903C281.184 131.393 280.873 130.93 280.482 130.539C280.09 130.149 279.625 129.84 279.114 129.629C278.602 129.419 278.054 129.311 277.5 129.311H260.892C260.339 129.311 259.792 129.42 259.281 129.631C258.77 129.842 258.306 130.151 257.915 130.541C257.524 130.932 257.214 131.395 257.002 131.904C256.791 132.414 256.682 132.961 256.682 133.512V134.661H216.688V76.6773H319.92V134.661ZM325.281 134.661V76.6773H353.137L348.933 134.661H325.281Z" fill="#3F3D56"/>
<path d="M-2.28882e-05 295.215C5.91793 302.212 12.3189 308.788 19.156 314.894L516.844 315.574C523.681 309.468 530.082 302.892 536 295.895L-2.28882e-05 295.215Z" fill="#3F3D56"/>
<path d="M337.498 232.201V290.46C337.499 291.202 337.795 291.914 338.321 292.439C338.847 292.964 339.56 293.259 340.304 293.26H426.823C427.567 293.259 428.28 292.964 428.806 292.439C429.332 291.914 429.628 291.202 429.629 290.46V232.201C429.627 231.46 429.331 230.749 428.805 230.224C428.279 229.7 427.566 229.405 426.823 229.404H340.304C339.561 229.405 338.848 229.7 338.322 230.224C337.796 230.749 337.5 231.46 337.498 232.201Z" fill="#3F3D56"/>
<path d="M339.528 232.926V289.741C339.529 290.138 339.687 290.518 339.968 290.799C340.249 291.079 340.63 291.237 341.028 291.238H426.103C426.5 291.237 426.881 291.079 427.162 290.799C427.443 290.518 427.601 290.138 427.602 289.741V232.926C427.602 232.529 427.444 232.148 427.163 231.867C426.882 231.586 426.501 231.428 426.103 231.427H341.028C340.63 231.428 340.248 231.586 339.967 231.867C339.686 232.148 339.528 232.529 339.528 232.926Z" fill="white"/>
<path d="M335.689 301.822C335.847 302.02 336.049 302.18 336.278 302.289C336.507 302.399 336.759 302.455 337.013 302.454H429.654C429.907 302.453 430.157 302.397 430.386 302.288C430.614 302.179 430.816 302.021 430.975 301.824C431.135 301.628 431.249 301.399 431.308 301.153C431.368 300.907 431.372 300.651 431.32 300.404L429.882 293.588C429.822 293.31 429.694 293.051 429.509 292.835C429.323 292.619 429.087 292.453 428.82 292.352C428.628 292.277 428.423 292.238 428.216 292.238H338.445C338.238 292.238 338.033 292.277 337.84 292.352C337.574 292.453 337.338 292.619 337.152 292.835C336.967 293.051 336.838 293.31 336.779 293.588L335.341 300.404C335.29 300.651 335.294 300.907 335.355 301.152C335.415 301.397 335.529 301.626 335.689 301.822Z" fill="#2F2E41"/>
<path d="M425.037 295.174H427.225C427.409 295.174 427.558 295.025 427.558 294.842V293.798C427.558 293.614 427.409 293.466 427.225 293.466H425.037C424.853 293.466 424.704 293.614 424.704 293.798V294.842C424.704 295.025 424.853 295.174 425.037 295.174Z" fill="#3F3D56"/>
<path d="M419.33 295.174H421.518C421.702 295.174 421.851 295.025 421.851 294.842V293.798C421.851 293.614 421.702 293.466 421.518 293.466H419.33C419.147 293.466 418.998 293.614 418.998 293.798V294.842C418.998 295.025 419.147 295.174 419.33 295.174Z" fill="#3F3D56"/>
<path d="M413.624 295.174H415.812C415.996 295.174 416.144 295.025 416.144 294.842V293.798C416.144 293.614 415.996 293.466 415.812 293.466H413.624C413.44 293.466 413.291 293.614 413.291 293.798V294.842C413.291 295.025 413.44 295.174 413.624 295.174Z" fill="#3F3D56"/>
<path d="M407.917 295.174H410.105C410.289 295.174 410.438 295.025 410.438 294.842V293.798C410.438 293.614 410.289 293.466 410.105 293.466H407.917C407.733 293.466 407.585 293.614 407.585 293.798V294.842C407.585 295.025 407.733 295.174 407.917 295.174Z" fill="#3F3D56"/>
<path d="M402.211 295.174H404.399C404.582 295.174 404.731 295.025 404.731 294.842V293.798C404.731 293.614 404.582 293.466 404.399 293.466H402.211C402.027 293.466 401.878 293.614 401.878 293.798V294.842C401.878 295.025 402.027 295.174 402.211 295.174Z" fill="#3F3D56"/>
<path d="M396.504 295.174H398.692C398.876 295.174 399.025 295.025 399.025 294.842V293.798C399.025 293.614 398.876 293.466 398.692 293.466H396.504C396.32 293.466 396.171 293.614 396.171 293.798V294.842C396.171 295.025 396.32 295.174 396.504 295.174Z" fill="#3F3D56"/>
<path d="M390.797 295.174H392.986C393.169 295.174 393.318 295.025 393.318 294.842V293.798C393.318 293.614 393.169 293.466 392.986 293.466H390.797C390.614 293.466 390.465 293.614 390.465 293.798V294.842C390.465 295.025 390.614 295.174 390.797 295.174Z" fill="#3F3D56"/>
<path d="M385.091 295.174H387.279C387.463 295.174 387.612 295.025 387.612 294.842V293.798C387.612 293.614 387.463 293.466 387.279 293.466H385.091C384.907 293.466 384.758 293.614 384.758 293.798V294.842C384.758 295.025 384.907 295.174 385.091 295.174Z" fill="#3F3D56"/>
<path d="M379.384 295.174H381.572C381.756 295.174 381.905 295.025 381.905 294.842V293.798C381.905 293.614 381.756 293.466 381.572 293.466H379.384C379.201 293.466 379.052 293.614 379.052 293.798V294.842C379.052 295.025 379.201 295.174 379.384 295.174Z" fill="#3F3D56"/>
<path d="M373.678 295.174H375.866C376.049 295.174 376.198 295.025 376.198 294.842V293.798C376.198 293.614 376.049 293.466 375.866 293.466H373.678C373.494 293.466 373.345 293.614 373.345 293.798V294.842C373.345 295.025 373.494 295.174 373.678 295.174Z" fill="#3F3D56"/>
<path d="M367.971 295.174H370.159C370.343 295.174 370.492 295.025 370.492 294.842V293.798C370.492 293.614 370.343 293.466 370.159 293.466H367.971C367.787 293.466 367.638 293.614 367.638 293.798V294.842C367.638 295.025 367.787 295.174 367.971 295.174Z" fill="#3F3D56"/>
<path d="M362.264 295.174H364.453C364.636 295.174 364.785 295.025 364.785 294.842V293.798C364.785 293.614 364.636 293.466 364.453 293.466H362.264C362.081 293.466 361.932 293.614 361.932 293.798V294.842C361.932 295.025 362.081 295.174 362.264 295.174Z" fill="#3F3D56"/>
<path d="M356.558 295.174H358.746C358.93 295.174 359.079 295.025 359.079 294.842V293.798C359.079 293.614 358.93 293.466 358.746 293.466H356.558C356.374 293.466 356.225 293.614 356.225 293.798V294.842C356.225 295.025 356.374 295.174 356.558 295.174Z" fill="#3F3D56"/>
<path d="M350.851 295.174H353.039C353.223 295.174 353.372 295.025 353.372 294.842V293.798C353.372 293.614 353.223 293.466 353.039 293.466H350.851C350.668 293.466 350.519 293.614 350.519 293.798V294.842C350.519 295.025 350.668 295.174 350.851 295.174Z" fill="#3F3D56"/>
<path d="M345.145 295.174H347.333C347.516 295.174 347.665 295.025 347.665 294.842V293.798C347.665 293.614 347.516 293.466 347.333 293.466H345.145C344.961 293.466 344.812 293.614 344.812 293.798V294.842C344.812 295.025 344.961 295.174 345.145 295.174Z" fill="#3F3D56"/>
<path d="M339.438 295.174H341.626C341.81 295.174 341.959 295.025 341.959 294.842V293.798C341.959 293.614 341.81 293.466 341.626 293.466H339.438C339.254 293.466 339.105 293.614 339.105 293.798V294.842C339.105 295.025 339.254 295.174 339.438 295.174Z" fill="#3F3D56"/>
<path d="M425.104 298.021H427.293C427.476 298.021 427.625 297.873 427.625 297.689V296.645C427.625 296.461 427.476 296.313 427.293 296.313H425.104C424.921 296.313 424.772 296.461 424.772 296.645V297.689C424.772 297.873 424.921 298.021 425.104 298.021Z" fill="#3F3D56"/>
<path d="M419.398 298.021H421.586C421.77 298.021 421.918 297.873 421.918 297.689V296.645C421.918 296.461 421.77 296.313 421.586 296.313H419.398C419.214 296.313 419.065 296.461 419.065 296.645V297.689C419.065 297.873 419.214 298.021 419.398 298.021Z" fill="#3F3D56"/>
<path d="M413.691 298.021H415.879C416.063 298.021 416.212 297.873 416.212 297.689V296.645C416.212 296.461 416.063 296.313 415.879 296.313H413.691C413.507 296.313 413.359 296.461 413.359 296.645V297.689C413.359 297.873 413.507 298.021 413.691 298.021Z" fill="#3F3D56"/>
<path d="M407.985 298.021H410.173C410.356 298.021 410.505 297.873 410.505 297.689V296.645C410.505 296.461 410.356 296.313 410.173 296.313H407.985C407.801 296.313 407.652 296.461 407.652 296.645V297.689C407.652 297.873 407.801 298.021 407.985 298.021Z" fill="#3F3D56"/>
<path d="M402.278 298.021H404.466C404.65 298.021 404.799 297.873 404.799 297.689V296.645C404.799 296.461 404.65 296.313 404.466 296.313H402.278C402.094 296.313 401.945 296.461 401.945 296.645V297.689C401.945 297.873 402.094 298.021 402.278 298.021Z" fill="#3F3D56"/>
<path d="M396.571 298.021H398.76C398.943 298.021 399.092 297.873 399.092 297.689V296.645C399.092 296.461 398.943 296.313 398.76 296.313H396.571C396.388 296.313 396.239 296.461 396.239 296.645V297.689C396.239 297.873 396.388 298.021 396.571 298.021Z" fill="#3F3D56"/>
<path d="M390.865 298.021H393.053C393.237 298.021 393.386 297.873 393.386 297.689V296.645C393.386 296.461 393.237 296.313 393.053 296.313H390.865C390.681 296.313 390.532 296.461 390.532 296.645V297.689C390.532 297.873 390.681 298.021 390.865 298.021Z" fill="#3F3D56"/>
<path d="M385.158 298.021H387.346C387.53 298.021 387.679 297.873 387.679 297.689V296.645C387.679 296.461 387.53 296.313 387.346 296.313H385.158C384.974 296.313 384.826 296.461 384.826 296.645V297.689C384.826 297.873 384.974 298.021 385.158 298.021Z" fill="#3F3D56"/>
<path d="M379.452 298.021H381.64C381.823 298.021 381.972 297.873 381.972 297.689V296.645C381.972 296.461 381.823 296.313 381.64 296.313H379.452C379.268 296.313 379.119 296.461 379.119 296.645V297.689C379.119 297.873 379.268 298.021 379.452 298.021Z" fill="#3F3D56"/>
<path d="M373.745 298.021H375.933C376.117 298.021 376.266 297.873 376.266 297.689V296.645C376.266 296.461 376.117 296.313 375.933 296.313H373.745C373.561 296.313 373.412 296.461 373.412 296.645V297.689C373.412 297.873 373.561 298.021 373.745 298.021Z" fill="#3F3D56"/>
<path d="M368.038 298.021H370.227C370.41 298.021 370.559 297.873 370.559 297.689V296.645C370.559 296.461 370.41 296.313 370.227 296.313H368.038C367.855 296.313 367.706 296.461 367.706 296.645V297.689C367.706 297.873 367.855 298.021 368.038 298.021Z" fill="#3F3D56"/>
<path d="M362.332 298.021H364.52C364.704 298.021 364.853 297.873 364.853 297.689V296.645C364.853 296.461 364.704 296.313 364.52 296.313H362.332C362.148 296.313 361.999 296.461 361.999 296.645V297.689C361.999 297.873 362.148 298.021 362.332 298.021Z" fill="#3F3D56"/>
<path d="M356.625 298.021H358.813C358.997 298.021 359.146 297.873 359.146 297.689V296.645C359.146 296.461 358.997 296.313 358.813 296.313H356.625C356.442 296.313 356.293 296.461 356.293 296.645V297.689C356.293 297.873 356.442 298.021 356.625 298.021Z" fill="#3F3D56"/>
<path d="M350.919 298.021H353.107C353.29 298.021 353.439 297.873 353.439 297.689V296.645C353.439 296.461 353.29 296.313 353.107 296.313H350.919C350.735 296.313 350.586 296.461 350.586 296.645V297.689C350.586 297.873 350.735 298.021 350.919 298.021Z" fill="#3F3D56"/>
<path d="M345.212 298.021H347.4C347.584 298.021 347.733 297.873 347.733 297.689V296.645C347.733 296.461 347.584 296.313 347.4 296.313H345.212C345.028 296.313 344.879 296.461 344.879 296.645V297.689C344.879 297.873 345.028 298.021 345.212 298.021Z" fill="#3F3D56"/>
<path d="M339.505 298.021H341.694C341.877 298.021 342.026 297.873 342.026 297.689V296.645C342.026 296.461 341.877 296.313 341.694 296.313H339.505C339.322 296.313 339.173 296.461 339.173 296.645V297.689C339.173 297.873 339.322 298.021 339.505 298.021Z" fill="#3F3D56"/>
<path d="M377.74 301.438H399.901C400.085 301.438 400.233 301.289 400.233 301.106V300.061C400.233 299.878 400.085 299.73 399.901 299.73H377.74C377.556 299.73 377.407 299.878 377.407 300.061V301.106C377.407 301.289 377.556 301.438 377.74 301.438Z" fill="#3F3D56"/>
<path d="M354.26 243.856H352.323C351.736 243.856 351.26 244.332 351.26 244.918C351.26 245.504 351.736 245.979 352.323 245.979H354.26C354.848 245.979 355.324 245.504 355.324 244.918C355.324 244.332 354.848 243.856 354.26 243.856Z" fill="white"/>
<path d="M376.416 243.856H374.479C373.891 243.856 373.415 244.332 373.415 244.918C373.415 245.504 373.891 245.979 374.479 245.979H376.416C377.003 245.979 377.479 245.504 377.479 244.918C377.479 244.332 377.003 243.856 376.416 243.856Z" fill="white"/>
<path d="M382.693 243.856H380.756C380.169 243.856 379.693 244.332 379.693 244.918C379.693 245.504 380.169 245.979 380.756 245.979H382.693C383.281 245.979 383.757 245.504 383.757 244.918C383.757 244.332 383.281 243.856 382.693 243.856Z" fill="white"/>
<path d="M370.39 243.68H358.35C357.762 243.68 357.286 244.155 357.286 244.741C357.286 245.327 357.762 245.802 358.35 245.802H370.39C370.977 245.802 371.453 245.327 371.453 244.741C371.453 244.155 370.977 243.68 370.39 243.68Z" fill="white"/>
<path d="M399.93 243.68H387.89C387.303 243.68 386.827 244.155 386.827 244.741C386.827 245.327 387.303 245.802 387.89 245.802H399.93C400.517 245.802 400.994 245.327 400.994 244.741C400.994 244.155 400.517 243.68 399.93 243.68Z" fill="white"/>
<path d="M360.169 248.646H358.231C357.644 248.646 357.168 249.122 357.168 249.708C357.168 250.294 357.644 250.769 358.231 250.769H360.169C360.756 250.769 361.232 250.294 361.232 249.708C361.232 249.122 360.756 248.646 360.169 248.646Z" fill="white"/>
<path d="M382.324 248.646H380.387C379.799 248.646 379.323 249.122 379.323 249.708C379.323 250.294 379.799 250.769 380.387 250.769H382.324C382.911 250.769 383.387 250.294 383.387 249.708C383.387 249.122 382.911 248.646 382.324 248.646Z" fill="white"/>
<path d="M388.601 248.646H386.664C386.077 248.646 385.601 249.122 385.601 249.708C385.601 250.294 386.077 250.769 386.664 250.769H388.601C389.189 250.769 389.665 250.294 389.665 249.708C389.665 249.122 389.189 248.646 388.601 248.646Z" fill="white"/>
<path d="M376.298 248.47H364.258C363.67 248.47 363.194 248.945 363.194 249.531C363.194 250.117 363.67 250.592 364.258 250.592H376.298C376.885 250.592 377.361 250.117 377.361 249.531C377.361 248.945 376.885 248.47 376.298 248.47Z" fill="white"/>
<path d="M405.838 248.47H393.798C393.211 248.47 392.735 248.945 392.735 249.531C392.735 250.117 393.211 250.592 393.798 250.592H405.838C406.426 250.592 406.902 250.117 406.902 249.531C406.902 248.945 406.426 248.47 405.838 248.47Z" fill="white"/>
<path d="M366.077 253.437H364.139C363.552 253.437 363.076 253.912 363.076 254.498C363.076 255.084 363.552 255.559 364.139 255.559H366.077C366.664 255.559 367.14 255.084 367.14 254.498C367.14 253.912 366.664 253.437 366.077 253.437Z" fill="white"/>
<path d="M388.232 253.437H386.295C385.708 253.437 385.232 253.912 385.232 254.498C385.232 255.084 385.708 255.559 386.295 255.559H388.232C388.819 255.559 389.296 255.084 389.296 254.498C389.296 253.912 388.819 253.437 388.232 253.437Z" fill="white"/>
<path d="M394.51 253.437H392.572C391.985 253.437 391.509 253.912 391.509 254.498C391.509 255.084 391.985 255.559 392.572 255.559H394.51C395.097 255.559 395.573 255.084 395.573 254.498C395.573 253.912 395.097 253.437 394.51 253.437Z" fill="white"/>
<path d="M382.206 253.26H370.166C369.579 253.26 369.102 253.735 369.102 254.321C369.102 254.907 369.579 255.382 370.166 255.382H382.206C382.793 255.382 383.269 254.907 383.269 254.321C383.269 253.735 382.793 253.26 382.206 253.26Z" fill="white"/>
<path d="M411.746 253.26H399.706C399.119 253.26 398.643 253.735 398.643 254.321C398.643 254.907 399.119 255.382 399.706 255.382H411.746C412.334 255.382 412.81 254.907 412.81 254.321C412.81 253.735 412.334 253.26 411.746 253.26Z" fill="white"/>
<path d="M371.985 258.227H370.048C369.46 258.227 368.984 258.702 368.984 259.288C368.984 259.874 369.46 260.349 370.048 260.349H371.985C372.572 260.349 373.048 259.874 373.048 259.288C373.048 258.702 372.572 258.227 371.985 258.227Z" fill="white"/>
<path d="M394.14 258.227H392.203C391.616 258.227 391.14 258.702 391.14 259.288C391.14 259.874 391.616 260.349 392.203 260.349H394.14C394.728 260.349 395.204 259.874 395.204 259.288C395.204 258.702 394.728 258.227 394.14 258.227Z" fill="white"/>
<path d="M400.418 258.227H398.48C397.893 258.227 397.417 258.702 397.417 259.288C397.417 259.874 397.893 260.349 398.48 260.349H400.418C401.005 260.349 401.481 259.874 401.481 259.288C401.481 258.702 401.005 258.227 400.418 258.227Z" fill="white"/>
<path d="M388.114 258.05H376.074C375.487 258.05 375.011 258.525 375.011 259.111C375.011 259.697 375.487 260.172 376.074 260.172H388.114C388.701 260.172 389.177 259.697 389.177 259.111C389.177 258.525 388.701 258.05 388.114 258.05Z" fill="white"/>
<path d="M376.416 277.274H374.479C373.891 277.274 373.415 277.749 373.415 278.335C373.415 278.921 373.891 279.396 374.479 279.396H376.416C377.003 279.396 377.479 278.921 377.479 278.335C377.479 277.749 377.003 277.274 376.416 277.274Z" fill="white"/>
<path d="M382.693 277.274H380.756C380.169 277.274 379.693 277.749 379.693 278.335C379.693 278.921 380.169 279.396 380.756 279.396H382.693C383.281 279.396 383.757 278.921 383.757 278.335C383.757 277.749 383.281 277.274 382.693 277.274Z" fill="white"/>
<path d="M399.93 277.451H387.89C387.303 277.451 386.827 277.926 386.827 278.512C386.827 279.098 387.303 279.573 387.89 279.573H399.93C400.517 279.573 400.994 279.098 400.994 278.512C400.994 277.926 400.517 277.451 399.93 277.451Z" fill="white"/>
<path d="M354.26 277.274H352.323C351.736 277.274 351.26 277.749 351.26 278.335C351.26 278.921 351.736 279.396 352.323 279.396H354.26C354.848 279.396 355.324 278.921 355.324 278.335C355.324 277.749 354.848 277.274 354.26 277.274Z" fill="white"/>
<path d="M370.39 277.451H358.35C357.762 277.451 357.286 277.926 357.286 278.512C357.286 279.098 357.762 279.573 358.35 279.573H370.39C370.977 279.573 371.453 279.098 371.453 278.512C371.453 277.926 370.977 277.451 370.39 277.451Z" fill="white"/>
<path d="M360.169 272.484H358.231C357.644 272.484 357.168 272.959 357.168 273.545C357.168 274.131 357.644 274.606 358.231 274.606H360.169C360.756 274.606 361.232 274.131 361.232 273.545C361.232 272.959 360.756 272.484 360.169 272.484Z" fill="white"/>
<path d="M382.324 272.484H380.387C379.799 272.484 379.323 272.959 379.323 273.545C379.323 274.131 379.799 274.606 380.387 274.606H382.324C382.911 274.606 383.387 274.131 383.387 273.545C383.387 272.959 382.911 272.484 382.324 272.484Z" fill="white"/>
<path d="M388.601 272.484H386.664C386.077 272.484 385.601 272.959 385.601 273.545C385.601 274.131 386.077 274.606 386.664 274.606H388.601C389.189 274.606 389.665 274.131 389.665 273.545C389.665 272.959 389.189 272.484 388.601 272.484Z" fill="white"/>
<path d="M376.298 272.661H364.258C363.67 272.661 363.194 273.136 363.194 273.722C363.194 274.308 363.67 274.783 364.258 274.783H376.298C376.885 274.783 377.361 274.308 377.361 273.722C377.361 273.136 376.885 272.661 376.298 272.661Z" fill="white"/>
<path d="M366.077 267.694H364.139C363.552 267.694 363.076 268.169 363.076 268.755C363.076 269.341 363.552 269.816 364.139 269.816H366.077C366.664 269.816 367.14 269.341 367.14 268.755C367.14 268.169 366.664 267.694 366.077 267.694Z" fill="white"/>
<path d="M388.232 267.694H386.295C385.708 267.694 385.232 268.169 385.232 268.755C385.232 269.341 385.708 269.816 386.295 269.816H388.232C388.819 269.816 389.296 269.341 389.296 268.755C389.296 268.169 388.819 267.694 388.232 267.694Z" fill="white"/>
<path d="M394.51 267.694H392.572C391.985 267.694 391.509 268.169 391.509 268.755C391.509 269.341 391.985 269.816 392.572 269.816H394.51C395.097 269.816 395.573 269.341 395.573 268.755C395.573 268.169 395.097 267.694 394.51 267.694Z" fill="white"/>
<path d="M382.206 267.871H370.166C369.579 267.871 369.102 268.346 369.102 268.932C369.102 269.518 369.579 269.993 370.166 269.993H382.206C382.793 269.993 383.269 269.518 383.269 268.932C383.269 268.346 382.793 267.871 382.206 267.871Z" fill="white"/>
<path d="M371.985 262.904H370.048C369.46 262.904 368.984 263.379 368.984 263.965C368.984 264.551 369.46 265.026 370.048 265.026H371.985C372.572 265.026 373.048 264.551 373.048 263.965C373.048 263.379 372.572 262.904 371.985 262.904Z" fill="white"/>
<path d="M394.14 262.904H392.203C391.616 262.904 391.14 263.379 391.14 263.965C391.14 264.551 391.616 265.026 392.203 265.026H394.14C394.728 265.026 395.204 264.551 395.204 263.965C395.204 263.379 394.728 262.904 394.14 262.904Z" fill="white"/>
<path d="M400.418 262.904H398.48C397.893 262.904 397.417 263.379 397.417 263.965C397.417 264.551 397.893 265.026 398.48 265.026H400.418C401.005 265.026 401.481 264.551 401.481 263.965C401.481 263.379 401.005 262.904 400.418 262.904Z" fill="white"/>
<path d="M388.114 263.081H376.074C375.487 263.081 375.011 263.556 375.011 264.142C375.011 264.728 375.487 265.203 376.074 265.203H388.114C388.701 265.203 389.177 264.728 389.177 264.142C389.177 263.556 388.701 263.081 388.114 263.081Z" fill="white"/>
<path d="M343.961 333.412L334.867 319.067L363.412 296.361L375.194 283.336C376.725 281.644 378.674 280.383 380.846 279.677C383.018 278.972 385.338 278.849 387.574 279.318C389.809 279.788 391.882 280.835 393.585 282.355C395.288 283.874 396.561 285.813 397.278 287.978C398.34 291.185 398.111 294.679 396.641 297.722C395.17 300.765 392.573 303.118 389.396 304.286L370.765 311.135L343.961 333.412Z" fill="#FFB6B6"/>
<path d="M130.584 229.407V299.124H179.53V229.407C179.53 228.906 179.37 228.417 179.072 228.014C178.774 227.61 178.354 227.312 177.874 227.164C177.648 227.089 177.411 227.053 177.173 227.055H132.947C132.637 227.055 132.33 227.115 132.044 227.233C131.757 227.351 131.497 227.524 131.277 227.742C131.058 227.961 130.883 228.22 130.764 228.506C130.645 228.792 130.584 229.098 130.584 229.407ZM149.685 253.362C149.698 251.988 150.254 250.674 151.233 249.706C152.211 248.739 153.533 248.196 154.91 248.196C156.288 248.196 157.609 248.739 158.588 249.706C159.566 250.674 160.122 251.988 160.135 253.362V261.451C160.128 262.829 159.574 264.149 158.595 265.121C157.616 266.093 156.291 266.638 154.91 266.638C153.529 266.638 152.204 266.093 151.225 265.121C150.246 264.149 149.692 262.829 149.685 261.451V253.362Z" fill="#2F2E41"/>
<path d="M130.434 296.894V303.617C130.435 303.965 130.574 304.299 130.82 304.546C131.066 304.793 131.4 304.933 131.749 304.936H178.365C178.714 304.934 179.048 304.794 179.295 304.547C179.541 304.3 179.68 303.966 179.679 303.617V296.894H130.434Z" fill="#3F3D56"/>
<path d="M53.585 124.37V251.663C53.5863 253.285 54.2326 254.84 55.3821 255.987C56.5316 257.134 58.0904 257.779 59.716 257.78H248.755C250.381 257.779 251.94 257.134 253.089 255.987C254.239 254.84 254.885 253.285 254.886 251.663V124.37C254.883 122.749 254.235 121.196 253.086 120.051C251.937 118.905 250.38 118.261 248.755 118.259H59.716C58.0918 118.261 56.5345 118.905 55.3854 120.051C54.2363 121.196 53.5889 122.749 53.585 124.37Z" fill="#3F3D56"/>
<path d="M58.0198 125.954V250.092C58.0213 250.959 58.367 251.79 58.9811 252.403C59.5953 253.016 60.4279 253.361 61.2965 253.362H247.182C248.05 253.361 248.883 253.016 249.497 252.403C250.111 251.79 250.457 250.959 250.458 250.092V125.954C250.458 125.086 250.113 124.254 249.499 123.64C248.885 123.025 248.051 122.679 247.182 122.677H61.2965C60.4268 122.679 59.5935 123.025 58.9792 123.64C58.3649 124.254 58.0199 125.086 58.0198 125.954Z" fill="white"/>
<path d="M92.5169 304.48C92.7061 304.717 92.9466 304.908 93.2203 305.039C93.4941 305.169 93.7939 305.236 94.0974 305.235H204.687C204.99 305.234 205.288 305.167 205.561 305.037C205.834 304.907 206.075 304.718 206.265 304.483C206.456 304.249 206.591 303.975 206.662 303.682C206.734 303.389 206.738 303.083 206.676 302.788L204.96 294.651C204.888 294.319 204.735 294.01 204.514 293.753C204.293 293.495 204.01 293.297 203.693 293.176C203.463 293.086 203.218 293.04 202.97 293.04H95.8072C95.5601 293.04 95.3152 293.086 95.0851 293.176C94.7674 293.297 94.485 293.495 94.2637 293.753C94.0424 294.01 93.8892 294.319 93.818 294.651L92.1014 302.788C92.0403 303.083 92.0459 303.388 92.1178 303.681C92.1897 303.974 92.326 304.247 92.5169 304.48Z" fill="#2F2E41"/>
<path d="M241.149 139.778H67.217C67.0363 139.774 66.8642 139.7 66.7378 139.571C66.6113 139.442 66.5406 139.268 66.5406 139.088C66.5406 138.907 66.6113 138.734 66.7378 138.605C66.8642 138.476 67.0363 138.402 67.217 138.398H241.149C241.33 138.402 241.502 138.476 241.628 138.605C241.755 138.734 241.826 138.907 241.826 139.088C241.826 139.268 241.755 139.442 241.628 139.571C241.502 139.7 241.33 139.774 241.149 139.778Z" fill="#3F3D56"/>
<path d="M79.0568 134.874C81.2956 134.874 83.1104 133.022 83.1104 130.739C83.1104 128.455 81.2956 126.604 79.0568 126.604C76.8181 126.604 75.0033 128.455 75.0033 130.739C75.0033 133.022 76.8181 134.874 79.0568 134.874Z" fill="#3F3D56"/>
<path d="M93.0601 134.874C95.2988 134.874 97.1136 133.022 97.1136 130.739C97.1136 128.455 95.2988 126.604 93.0601 126.604C90.8214 126.604 89.0065 128.455 89.0065 130.739C89.0065 133.022 90.8214 134.874 93.0601 134.874Z" fill="#3F3D56"/>
<path d="M107.063 134.874C109.302 134.874 111.117 133.022 111.117 130.739C111.117 128.455 109.302 126.604 107.063 126.604C104.825 126.604 103.01 128.455 103.01 130.739C103.01 133.022 104.825 134.874 107.063 134.874Z" fill="#3F3D56"/>
<path d="M232.717 127.626H222.771C222.575 127.631 222.388 127.712 222.25 127.852C222.113 127.993 222.036 128.181 222.036 128.377C222.036 128.574 222.113 128.762 222.25 128.902C222.388 129.043 222.575 129.124 222.771 129.129H232.717C232.915 129.126 233.104 129.045 233.242 128.905C233.381 128.764 233.459 128.575 233.459 128.377C233.459 128.18 233.381 127.99 233.242 127.85C233.104 127.709 232.915 127.629 232.717 127.626Z" fill="#3F3D56"/>
<path d="M232.717 130.447H222.771C222.574 130.452 222.387 130.533 222.249 130.673C222.112 130.813 222.035 131.002 222.035 131.198C222.035 131.395 222.112 131.583 222.249 131.724C222.387 131.864 222.574 131.945 222.771 131.95H232.717C232.915 131.947 233.104 131.867 233.243 131.726C233.383 131.586 233.461 131.396 233.461 131.198C233.461 131.001 233.383 130.811 233.243 130.67C233.104 130.53 232.915 130.45 232.717 130.447Z" fill="#3F3D56"/>
<path d="M232.717 133.268H222.771C222.575 133.273 222.388 133.354 222.25 133.494C222.113 133.635 222.036 133.823 222.036 134.019C222.036 134.216 222.113 134.404 222.25 134.544C222.388 134.685 222.575 134.766 222.771 134.77H232.717C232.915 134.768 233.104 134.687 233.242 134.547C233.381 134.406 233.459 134.217 233.459 134.019C233.459 133.822 233.381 133.632 233.242 133.492C233.104 133.351 232.915 133.271 232.717 133.268Z" fill="#3F3D56"/>
<path d="M472.494 299.845C472.794 300.717 473.363 301.471 474.12 302C474.876 302.529 475.782 302.805 476.706 302.789L494.752 302.325C495.683 302.307 496.583 301.989 497.317 301.418C498.051 300.848 498.581 300.055 498.827 299.16L501.381 271.91C502.287 272.319 503.273 272.522 504.268 272.502C505.132 272.48 505.983 272.289 506.773 271.939C507.563 271.589 508.276 271.087 508.872 270.462C509.467 269.837 509.934 269.101 510.244 268.297C510.555 267.492 510.704 266.634 510.682 265.772C510.66 264.909 510.468 264.06 510.118 263.272C509.767 262.483 509.264 261.772 508.638 261.177C508.012 260.583 507.274 260.118 506.468 259.808C505.661 259.498 504.801 259.349 503.937 259.371C503.54 259.37 503.143 259.411 502.754 259.494C502.332 259.037 501.818 258.674 501.246 258.428C500.674 258.182 500.057 258.058 499.434 258.064L471.674 258.78C471.444 258.788 471.215 258.816 470.989 258.864C470.38 258.978 469.803 259.22 469.296 259.574C468.789 259.929 468.364 260.388 468.049 260.92C467.734 261.452 467.538 262.046 467.472 262.66C467.407 263.275 467.474 263.896 467.669 264.482L472.494 299.845ZM501.904 270.06L503.722 263.566C503.928 262.816 503.933 262.025 503.735 261.272C503.824 261.272 503.901 261.23 503.99 261.23C505.236 261.204 506.441 261.673 507.341 262.532C508.242 263.392 508.764 264.573 508.793 265.816C508.822 267.06 508.356 268.264 507.497 269.165C506.638 270.066 505.456 270.59 504.21 270.622C503.404 270.647 502.607 270.453 501.904 270.06Z" fill="#2F2E41"/>
<path d="M470.989 258.864C471.581 262.239 478.23 264.611 486.225 264.199C493.578 263.861 499.589 261.284 500.691 258.231C500.283 258.111 499.859 258.055 499.434 258.064L471.674 258.779C471.444 258.788 471.215 258.816 470.989 258.864Z" fill="#3F3D56"/>
<path d="M487.691 284.871C487.727 284.861 487.762 284.846 487.793 284.825L491.713 282.266C491.76 282.235 491.799 282.193 491.826 282.143C491.853 282.093 491.867 282.038 491.867 281.981C491.867 281.925 491.853 281.87 491.826 281.82C491.799 281.77 491.76 281.728 491.713 281.697L487.639 279.035C487.602 279.01 487.56 278.993 487.516 278.985C487.472 278.976 487.427 278.976 487.383 278.985C487.339 278.994 487.297 279.012 487.26 279.037C487.223 279.062 487.191 279.094 487.167 279.132C487.142 279.169 487.125 279.211 487.117 279.255C487.109 279.299 487.109 279.344 487.118 279.388C487.128 279.432 487.145 279.473 487.171 279.51C487.196 279.547 487.228 279.579 487.266 279.603L490.904 281.981L487.421 284.257C487.353 284.301 487.304 284.367 487.281 284.444C487.258 284.521 487.263 284.604 487.295 284.678C487.328 284.751 487.385 284.811 487.457 284.846C487.53 284.882 487.613 284.89 487.691 284.871H487.691Z" fill="white"/>
<path d="M481.501 285.155C481.566 285.139 481.626 285.103 481.671 285.053C481.716 285.002 481.745 284.939 481.754 284.872C481.764 284.805 481.753 284.737 481.723 284.676C481.693 284.615 481.645 284.565 481.586 284.531L477.974 282.464L481.466 279.876C481.501 279.85 481.532 279.816 481.555 279.778C481.578 279.74 481.593 279.697 481.599 279.653C481.606 279.609 481.604 279.564 481.593 279.521C481.582 279.478 481.562 279.437 481.536 279.401C481.509 279.365 481.476 279.335 481.437 279.312C481.399 279.289 481.356 279.274 481.312 279.268C481.268 279.261 481.223 279.264 481.18 279.274C481.136 279.285 481.095 279.305 481.06 279.331L477.15 282.229C477.105 282.262 477.069 282.307 477.045 282.358C477.021 282.409 477.01 282.465 477.013 282.522C477.016 282.578 477.034 282.632 477.064 282.68C477.093 282.728 477.135 282.768 477.184 282.796L481.247 285.121C481.324 285.165 481.415 285.177 481.501 285.155Z" fill="white"/>
<path d="M487.301 287.114C487.334 287.106 487.365 287.092 487.394 287.074C487.432 287.051 487.466 287.021 487.492 286.985C487.519 286.949 487.538 286.908 487.548 286.865C487.559 286.821 487.561 286.776 487.554 286.732C487.547 286.688 487.532 286.645 487.508 286.607L481.953 277.493C481.905 277.416 481.83 277.361 481.742 277.34C481.654 277.319 481.562 277.333 481.485 277.38C481.407 277.427 481.352 277.502 481.331 277.59C481.309 277.677 481.324 277.77 481.371 277.847L486.926 286.961C486.964 287.023 487.021 287.072 487.088 287.099C487.156 287.126 487.23 287.132 487.301 287.114Z" fill="white"/>
<path d="M174.965 177.301H144.861C143.633 177.301 142.638 178.294 142.638 179.52V182.454C142.638 183.68 143.633 184.673 144.861 184.673H174.965C176.193 184.673 177.189 183.68 177.189 182.454V179.52C177.189 178.294 176.193 177.301 174.965 177.301Z" fill="white"/>
<path d="M192.512 192.046H127.314C126.086 192.046 125.09 193.039 125.09 194.265V197.199C125.09 198.425 126.086 199.418 127.314 199.418H192.512C193.74 199.418 194.736 198.425 194.736 197.199V194.265C194.736 193.039 193.74 192.046 192.512 192.046Z" fill="#E6E6E6"/>
<path d="M192.512 206.791H127.314C126.086 206.791 125.09 207.784 125.09 209.01V211.944C125.09 213.17 126.086 214.163 127.314 214.163H192.512C193.74 214.163 194.736 213.17 194.736 211.944V209.01C194.736 207.784 193.74 206.791 192.512 206.791Z" fill="#E6E6E6"/>
<path d="M198.039 256.166L198.187 256.631L198.195 256.647L202.64 270.132L207.753 285.672L217.374 314.876L217.467 319.412V319.427L218.182 355.92L216.2 360.868L218.431 368.979C218.431 368.979 217.405 356.718 211.903 363.759C208.787 367.76 205.142 371.855 202.15 375.693C206.51 377.454 210.939 379.046 215.439 380.47C216.41 380.78 217.389 381.075 218.369 381.37C218.578 381.432 218.788 381.494 218.998 381.556C233.913 385.957 249.333 388.43 264.879 388.915C265.687 388.938 266.48 388.953 267.249 388.969C267.521 388.977 267.785 388.985 268.05 388.985C268.92 388.992 269.783 389 270.653 389C272.409 389 274.158 388.974 275.899 388.923C288.783 388.56 301.592 386.831 314.109 383.766C314.024 378.609 313.791 372.584 313.457 366.147C313.301 362.991 309.812 359.572 309.602 356.268C309.454 353.787 312.586 351.453 312.423 348.932C311.366 333.416 310.045 339.372 309.066 328.384C308.965 327.306 308.872 326.275 308.786 325.29C308.157 318.233 307.722 313.821 307.722 313.821L311.902 287.525L318.469 246.24L317.964 245.411L317.397 245.131L282.76 228.025L280.88 223.217C280.332 221.832 279.381 220.642 278.15 219.801C276.919 218.959 275.464 218.504 273.971 218.495L251.155 218.402C249.971 218.396 248.803 218.673 247.747 219.208C246.692 219.744 245.779 220.522 245.086 221.48L238.908 230.018L198.039 256.166Z" fill="#3F3D56"/>
<path d="M222.635 308.377L217.467 319.412L213.939 326.949L207.87 358.658L204.831 361.876L202.228 350.483L174.981 356.52C174.087 351.565 174.741 356.688 174.189 351.252C174.345 351.097 174.508 350.942 174.671 350.787C175.106 350.384 175.472 350.004 175.464 349.639C175.153 330.889 176.086 298.979 183.872 279.647C185.092 276.49 186.7 273.497 188.659 270.737C188.815 270.528 188.963 270.318 189.11 270.109C192.7 265.092 194.97 260.152 198.187 256.639V256.631C198.207 256.615 198.225 256.597 198.241 256.577C198.253 256.571 198.264 256.563 198.272 256.554L220.374 244.86L221.322 271.443L221.998 290.55L222.635 308.377Z" fill="#3F3D56"/>
<path d="M302.328 311.511L308.783 325.294L311.036 330.093L317.104 361.799L320.132 365.009L322.742 353.619L323.968 353.368L346.079 348.799L352.524 369.223C353.976 366.808 354.549 363.967 354.144 361.179C353.739 358.392 352.382 355.829 350.302 353.925C349.862 353.527 349.495 353.14 349.506 352.774C349.873 330.721 348.521 290.451 336.312 273.877C332.435 268.617 330.109 263.378 326.724 259.718C326.713 259.708 326.713 259.698 326.703 259.698L318.466 246.239L317.963 245.413L317.397 245.131L302.328 311.511Z" fill="#3F3D56"/>
<path d="M263.222 211.922C279.986 211.922 293.576 198.361 293.576 181.633C293.576 164.905 279.986 151.344 263.222 151.344C246.458 151.344 232.868 164.905 232.868 181.633C232.868 198.361 246.458 211.922 263.222 211.922Z" fill="#FFB6B6"/>
<path d="M304.249 160.476C304.014 160.226 303.731 160.025 303.416 159.886C303.101 159.747 302.761 159.673 302.417 159.668L302.873 158.403C303.022 158.005 303.063 157.574 302.99 157.155C302.917 156.737 302.734 156.345 302.46 156.019C302.185 155.694 301.829 155.448 301.428 155.305C301.026 155.163 300.594 155.129 300.176 155.208L298.514 155.528L298.67 154.42C298.73 154.007 298.682 153.586 298.529 153.198C298.377 152.809 298.126 152.467 297.8 152.205C297.475 151.943 297.087 151.77 296.675 151.703C296.263 151.636 295.84 151.678 295.448 151.823C295.092 151.963 294.709 152.022 294.327 151.995C293.945 151.967 293.574 151.855 293.241 151.667C292.907 151.484 292.616 151.23 292.391 150.924C292.165 150.617 292.008 150.265 291.933 149.892L291.354 147.105L291.293 146.956C288.472 142.266 283.05 138.853 276.415 137.602C270.508 136.481 264.452 137.052 258.614 137.589C256.298 137.806 253.682 138.051 251.502 139.383C249.649 140.525 248.083 142.809 248.403 145.114C242.646 143.353 236.475 146.868 233.416 151.3C229.792 156.575 229.199 163.182 229.104 168.348C228.845 180.57 231.372 190.57 236.597 198.074C236.979 198.618 237.074 199.753 237.83 200.134L237.674 199.882C238.518 200.304 239.377 200.984 239.056 201.711C238.137 203.805 244.247 208.434 248.553 209.963C256.407 212.757 266.85 212.519 274.194 211.513L274.453 209.78C277.103 209.419 278.969 208.733 279.494 207.659C280.42 206.87 281.21 206.163 281.899 205.511L281.905 205.504C281.919 205.49 281.946 205.47 281.96 205.456C285.277 202.282 286.047 200.474 286.395 197.721C286.728 195.022 286.136 192.283 285.529 189.815C298.296 191.786 280.502 176.247 292.396 173.242C292.533 173.2 292.671 173.166 292.812 173.14C293.159 173.059 293.507 172.977 293.84 172.882C295.449 172.446 296.99 171.79 298.418 170.931C301.743 168.912 302.839 166.234 304.556 163.216C304.804 162.786 304.908 162.289 304.852 161.796C304.797 161.303 304.586 160.841 304.249 160.476Z" fill="#2F2E41"/>
<path d="M370.58 313.668C370.573 314.858 370.56 316.523 370.505 318.583C370.498 318.868 370.492 319.16 370.485 319.46C370.396 323.246 370.308 326.42 370.165 329.948C370.158 330.193 370.151 330.431 370.137 330.676C369.947 335.597 369.647 341.328 369.129 350.402C368.169 367.165 366.493 352.707 364.81 358.587C364.728 358.879 364.64 359.226 364.558 359.634C364.303 361.113 363.873 362.558 363.277 363.936C362.385 364.467 361.465 364.977 360.559 365.486C357.977 366.921 355.355 368.301 352.712 369.613C351.227 370.347 349.735 371.067 348.236 371.761C347.998 371.869 347.766 371.978 347.534 372.08C339.86 375.622 331.95 378.634 323.862 381.094C322.281 381.57 320.708 382.032 319.114 382.46C317.452 382.922 315.789 383.357 314.107 383.765C301.589 386.832 288.781 388.561 275.897 388.925C274.16 388.979 272.409 388.999 270.652 388.999C269.78 388.999 268.921 388.993 268.049 388.986C267.784 388.986 267.518 388.979 267.252 388.972C266.482 388.952 265.685 388.938 264.882 388.918C249.335 388.434 233.916 385.96 219.001 381.556L218.368 381.372C217.387 381.073 216.413 380.781 215.438 380.468C210.942 379.048 206.512 377.457 202.148 375.696C198.817 374.357 195.524 372.921 192.27 371.387C192.24 371.379 192.212 371.365 192.188 371.346C191.507 371.033 190.819 370.707 190.138 370.374C190.049 370.326 189.954 370.279 189.858 370.231C187.317 368.994 184.804 367.698 182.317 366.343C180.226 361.551 177.283 360.633 175.457 356.418C174.926 355.166 174.542 353.857 174.313 352.516C174.313 352.503 174.306 352.489 174.306 352.469C174.497 354.998 173.495 347.982 174.299 352.442C174.293 352.36 174.286 352.272 174.279 352.17C174.258 351.925 174.231 351.626 174.19 351.252C171.854 328.487 172.004 302.452 170.989 280.999C170.92 279.612 170.85 278.284 170.777 277.015C170.757 276.594 170.73 276.179 170.702 275.771C170.75 275.649 170.805 275.52 170.866 275.397C170.879 275.362 170.895 275.328 170.914 275.295C170.934 275.253 170.957 275.212 170.982 275.173C170.995 275.153 171.016 275.125 171.029 275.105C171.039 275.082 171.051 275.059 171.064 275.037C171.125 274.942 171.193 274.84 171.268 274.745C171.302 274.704 171.329 274.67 171.363 274.636C171.387 274.601 171.414 274.569 171.445 274.541C171.466 274.508 171.491 274.478 171.52 274.452C171.547 274.425 171.574 274.391 171.609 274.357C171.623 274.336 171.642 274.317 171.663 274.303C171.717 274.241 171.776 274.184 171.84 274.133C172.083 273.91 172.343 273.705 172.617 273.521C172.712 273.46 172.814 273.399 172.91 273.331C173.596 272.921 174.319 272.575 175.069 272.298C175.328 272.202 175.587 272.114 175.866 272.019C175.968 271.992 176.064 271.958 176.166 271.924C176.316 271.876 176.466 271.829 176.622 271.795C177.399 271.563 178.237 271.366 179.143 271.183C179.252 271.162 179.368 271.142 179.483 271.115C179.647 271.081 179.817 271.054 179.988 271.026C180.219 270.986 180.458 270.945 180.696 270.904C182.719 270.585 185.015 270.347 187.549 270.19C187.788 270.177 188.026 270.163 188.264 270.15C188.544 270.136 188.823 270.122 189.109 270.109C189.348 270.095 189.593 270.088 189.838 270.082C190.076 270.068 190.322 270.061 190.574 270.054C191.262 270.034 191.97 270.014 192.692 270C194.75 269.959 196.916 269.973 199.191 270.02C200.247 270.048 201.323 270.075 202.427 270.122C202.502 270.122 202.57 270.129 202.638 270.129C203.599 270.163 204.566 270.204 205.561 270.258C206.256 270.292 206.957 270.326 207.659 270.367C208.32 270.408 208.987 270.449 209.662 270.496C210.186 270.523 210.711 270.564 211.242 270.598C211.692 270.632 212.141 270.666 212.591 270.693L213.204 270.734C213.538 270.761 213.872 270.782 214.212 270.816C214.962 270.877 215.711 270.938 216.474 270.999C217.23 271.067 218 271.135 218.77 271.203C219.539 271.271 220.316 271.346 221.093 271.421C221.174 271.427 221.249 271.434 221.324 271.441C222.033 271.516 222.741 271.584 223.456 271.659C223.62 271.672 223.79 271.686 223.954 271.706C224.636 271.775 225.331 271.855 226.019 271.928C226.23 271.95 226.44 271.972 226.652 271.995C227.191 272.054 227.723 272.105 228.266 272.168C228.981 272.25 229.71 272.325 230.418 272.42C230.97 272.481 231.522 272.542 232.074 272.61C232.939 272.712 233.818 272.821 234.696 272.937C235.03 272.977 235.364 273.018 235.698 273.066C238.205 273.378 240.739 273.725 243.314 274.085C247.217 274.636 251.182 275.234 255.174 275.88C259.173 276.526 263.194 277.208 267.239 277.926C268.26 278.11 269.282 278.293 270.311 278.483C270.774 278.572 271.237 278.66 271.701 278.748C272.491 278.891 273.281 279.041 274.071 279.19C274.861 279.34 275.652 279.489 276.442 279.646C277.382 279.829 278.329 280.013 279.269 280.196C285.461 281.42 291.619 282.725 297.628 284.091C298.616 284.316 299.603 284.547 300.584 284.771C302.546 285.227 304.49 285.689 306.416 286.158C306.947 286.28 307.472 286.409 307.996 286.539C309.304 286.865 310.612 287.191 311.9 287.524L312.124 287.585C313.071 287.817 313.998 288.054 314.924 288.299C317.111 288.87 319.261 289.448 321.375 290.033C322.779 290.42 324.166 290.812 325.538 291.209C327.588 291.8 329.598 292.398 331.553 293.003C332.036 293.153 332.52 293.302 332.997 293.445C334.428 293.887 335.838 294.335 337.207 294.784C338.297 295.138 339.36 295.498 340.409 295.858C341.458 296.218 342.486 296.579 343.495 296.939C344.142 297.17 344.782 297.415 345.422 297.646C346.342 297.986 347.248 298.326 348.134 298.666C348.406 298.768 348.672 298.876 348.938 298.978C349.108 299.053 349.271 299.114 349.435 299.182C349.755 299.311 350.082 299.434 350.395 299.563C350.716 299.685 351.029 299.814 351.342 299.95C351.649 300.073 351.962 300.202 352.262 300.331C352.569 300.453 352.868 300.583 353.168 300.718C353.42 300.82 353.665 300.929 353.904 301.038C354.387 301.249 354.871 301.459 355.341 301.677C355.573 301.786 355.804 301.888 356.036 301.996L356.567 302.241C356.642 302.282 356.717 302.316 356.792 302.35C356.962 302.431 357.14 302.52 357.31 302.601C357.705 302.785 358.093 302.982 358.475 303.166C358.986 303.424 359.483 303.682 359.96 303.934C360.443 304.192 360.914 304.45 361.363 304.702C361.438 304.743 361.506 304.783 361.581 304.824C361.683 304.879 361.785 304.94 361.888 304.994C362.235 305.191 362.569 305.395 362.903 305.592C363.557 305.993 364.177 306.388 364.756 306.782C364.885 306.87 365.008 306.959 365.137 307.04C365.566 307.346 365.975 307.645 366.356 307.951C366.356 307.958 366.357 307.958 366.363 307.958C366.493 308.053 366.615 308.155 366.738 308.25C366.84 308.345 366.949 308.427 367.051 308.522C367.406 308.828 367.733 309.12 368.032 309.419C368.133 309.512 368.228 309.609 368.318 309.712C368.358 309.744 368.395 309.781 368.427 309.82C368.564 309.956 368.686 310.092 368.802 310.228C368.82 310.247 368.836 310.268 368.85 310.29C369.013 310.48 369.163 310.67 369.306 310.861C369.374 310.956 369.449 311.051 369.511 311.146C369.592 311.262 369.674 311.384 369.742 311.5C369.803 311.595 369.858 311.697 369.912 311.792C370.057 312.037 370.18 312.294 370.28 312.56C370.357 312.74 370.418 312.927 370.464 313.117C370.516 313.298 370.555 313.482 370.58 313.668Z" fill="#2F2E41"/>
<path opacity="0.2" d="M370.58 313.668C370.573 314.858 370.56 316.523 370.505 318.583C370.498 318.868 370.485 319.16 370.478 319.46C370.41 322.349 370.308 325.917 370.165 329.948C370.158 330.193 370.151 330.431 370.137 330.676C369.947 335.597 369.647 341.328 369.129 350.402C368.169 367.165 366.493 352.707 364.81 358.587C360.137 355.718 355.014 352.714 349.537 349.627C348.549 349.07 347.553 348.51 346.547 347.948C335.592 341.851 323.358 335.461 310.585 329.133C310.081 328.881 309.57 328.63 309.066 328.385C279.807 313.953 247.871 299.916 221.999 290.549C217.005 288.741 212.237 287.11 207.754 285.675C198.312 282.664 190.151 280.557 183.87 279.646C177.331 278.694 172.814 279.034 170.989 280.998C170.92 279.612 170.85 278.284 170.777 277.015C170.75 276.594 170.723 276.179 170.696 275.771C170.738 275.659 170.792 275.552 170.845 275.445C170.853 275.429 170.858 275.413 170.866 275.397C170.879 275.362 170.895 275.328 170.914 275.295C170.934 275.253 170.956 275.212 170.982 275.173C171.004 275.125 171.031 275.079 171.063 275.037C171.125 274.942 171.193 274.84 171.268 274.745C171.323 274.673 171.382 274.605 171.445 274.541C171.466 274.508 171.491 274.478 171.52 274.452C171.547 274.425 171.574 274.391 171.608 274.357C171.623 274.336 171.642 274.317 171.663 274.303C171.717 274.241 171.776 274.184 171.84 274.133C172.083 273.91 172.343 273.705 172.617 273.521C172.712 273.46 172.814 273.399 172.91 273.331C173.596 272.921 174.319 272.575 175.069 272.298C175.328 272.202 175.587 272.114 175.866 272.019C175.968 271.992 176.064 271.958 176.166 271.924C176.316 271.876 176.466 271.828 176.622 271.794C177.399 271.563 178.237 271.366 179.143 271.183C179.415 271.128 179.701 271.074 179.988 271.026C180.219 270.986 180.458 270.945 180.696 270.904C182.719 270.585 185.015 270.347 187.549 270.19C187.788 270.177 188.026 270.163 188.264 270.149C188.544 270.136 188.823 270.122 189.109 270.109C189.348 270.095 189.593 270.088 189.838 270.081C190.076 270.068 190.322 270.061 190.574 270.054C191.262 270.034 191.97 270.013 192.692 270C194.75 269.966 196.916 269.979 199.191 270.027C200.247 270.047 201.323 270.081 202.427 270.129C202.495 270.129 202.57 270.136 202.638 270.136C203.599 270.163 204.573 270.211 205.561 270.258C206.255 270.292 206.957 270.326 207.659 270.367C208.32 270.408 208.987 270.449 209.662 270.496C210.186 270.523 210.711 270.564 211.242 270.598C211.692 270.632 212.141 270.666 212.591 270.693C213.129 270.734 213.667 270.775 214.212 270.816C214.961 270.877 215.711 270.938 216.474 270.999C217.23 271.067 218 271.135 218.77 271.203C219.539 271.271 220.316 271.346 221.092 271.421C221.174 271.427 221.249 271.434 221.324 271.441C222.033 271.516 222.741 271.584 223.456 271.659C227.421 272.06 231.502 272.529 235.698 273.066C238.205 273.385 240.743 273.727 243.314 274.092C247.217 274.643 251.182 275.241 255.174 275.88C259.173 276.526 263.194 277.208 267.239 277.926C268.26 278.109 269.282 278.293 270.311 278.483C271.564 278.714 272.818 278.95 274.071 279.19C274.861 279.34 275.652 279.489 276.442 279.646C277.382 279.829 278.329 280.013 279.269 280.196C285.461 281.42 291.619 282.725 297.628 284.091C298.616 284.316 299.603 284.547 300.584 284.771C302.546 285.227 304.49 285.689 306.416 286.158C306.947 286.287 307.472 286.416 307.996 286.545C309.311 286.872 310.612 287.198 311.9 287.524V287.531C311.974 287.545 312.049 287.565 312.124 287.585C313.064 287.823 313.998 288.061 314.924 288.306C317.111 288.877 319.261 289.452 321.375 290.033C322.779 290.427 324.168 290.814 325.538 291.209C327.588 291.807 329.598 292.405 331.553 293.003C332.036 293.153 332.52 293.302 332.997 293.445C334.428 293.894 335.831 294.34 337.207 294.784C338.297 295.138 339.36 295.498 340.409 295.858C341.458 296.218 342.486 296.579 343.495 296.939C344.149 297.17 344.789 297.408 345.423 297.639C346.349 297.979 347.248 298.319 348.134 298.666C348.406 298.767 348.672 298.876 348.938 298.978C349.435 299.169 349.919 299.366 350.395 299.563C350.716 299.685 351.029 299.814 351.342 299.95C351.649 300.073 351.962 300.202 352.262 300.331C352.569 300.453 352.868 300.582 353.168 300.718C353.42 300.82 353.665 300.929 353.904 301.038C354.387 301.249 354.871 301.459 355.341 301.677C355.573 301.786 355.804 301.888 356.036 301.996L356.567 302.241C356.642 302.282 356.717 302.316 356.792 302.35C357.371 302.622 357.93 302.894 358.475 303.166C358.986 303.424 359.483 303.682 359.96 303.934C360.525 304.233 361.063 304.525 361.581 304.824C361.683 304.879 361.786 304.94 361.888 304.994C362.235 305.191 362.569 305.395 362.903 305.592C363.557 305.993 364.177 306.388 364.756 306.782C365.328 307.176 365.859 307.564 366.357 307.951C366.357 307.958 366.357 307.958 366.363 307.958C366.602 308.148 366.833 308.339 367.051 308.522C367.406 308.828 367.733 309.12 368.032 309.419C368.133 309.512 368.228 309.609 368.318 309.712C368.358 309.744 368.395 309.781 368.427 309.82C368.571 309.977 368.714 310.133 368.85 310.289C369.013 310.48 369.163 310.67 369.306 310.86C369.374 310.956 369.449 311.051 369.511 311.146C369.592 311.262 369.674 311.384 369.742 311.499C369.804 311.595 369.858 311.697 369.913 311.792C370.057 312.037 370.18 312.294 370.28 312.56C370.355 312.741 370.416 312.927 370.464 313.117C370.516 313.298 370.555 313.482 370.58 313.668Z" fill="black"/>
</g>
<defs>
<clipPath id="clip0_128_107">
<rect width="536" height="389" fill="white"/>
</clipPath>
</defs>
</svg>
